<svg width="131" height="364" viewBox="0 0 131 364" fill="none" xmlns="http://www.w3.org/2000/svg">
<g id="basse">
<path d="M52.9025 38.3333H58.1181V40.9411L51.5986 39.6372L52.9025 38.3333Z" fill="#7B7979"/>
<path d="M54.2064 39.6372V37.0294C52.9025 35.7255 51.5985 34.4216 50.2946 33.1176C47.6868 33.1176 45.079 33.1176 43.7751 37.0294C43.7751 37.0294 45.079 38.3333 43.7751 39.6372C45.079 40.9411 46.3829 42.245 48.9907 42.245C50.2946 43.5489 52.9025 40.9411 54.2064 39.6372Z" fill="#DCA04D"/>
<path d="M54.2064 37.0294C50.2946 35.7255 46.3829 37.0294 45.079 38.3333C45.079 38.3333 45.079 38.3333 43.7751 39.6372C45.079 38.3333 43.7751 37.0294 43.7751 37.0294C45.079 35.7255 45.079 35.7255 45.079 35.7255C46.3829 34.4216 47.6868 33.1176 50.2946 33.1176C51.5985 34.4216 51.5985 34.4216 52.9025 35.7255C52.9025 35.7255 52.9025 35.7255 54.2064 37.0294Z" fill="#E8B24F"/>
<path d="M56.8142 23.9903L62.0298 26.5981L60.7259 27.902L56.8142 26.5981V23.9903Z" fill="#7B7979"/>
<path d="M58.1181 25.2942V22.6863C56.8142 21.3824 55.5103 20.0785 55.5103 20.0785C51.5985 18.7746 48.9907 21.3824 47.6868 22.6863C48.9907 23.9902 47.6868 25.2942 48.9907 26.5981C48.9907 26.5981 50.2946 27.902 51.5986 29.2059C54.2064 29.2059 56.8142 26.5981 58.1181 25.2942Z" fill="#DCA04D"/>
<path d="M58.1181 22.6863C54.2064 21.3824 50.2946 22.6863 48.9907 23.9902L48.9907 26.5981C47.6868 25.2942 48.9907 23.9902 47.6868 22.6863C48.9907 21.3824 48.9907 21.3824 48.9907 21.3824C50.2946 20.0785 52.9025 20.0785 55.5103 20.0785C55.5103 20.0785 55.5103 20.0785 56.8142 21.3824C56.8142 21.3824 56.8142 21.3824 58.1181 22.6863Z" fill="#E8B24F"/>
<path d="M50.2946 51.3724L55.5103 53.9802L54.2064 55.2841L50.2946 53.9802V51.3724Z" fill="#7B7979"/>
<path d="M51.5986 52.6763C51.5986 52.6763 52.9025 51.3724 51.5986 50.0685C50.2946 48.7646 48.9907 47.4607 48.9907 47.4607C45.079 46.1568 43.7751 47.4607 41.1673 50.0685C42.4712 51.3724 41.1673 52.6763 42.4712 53.9802C42.4712 53.9802 43.7751 55.2841 46.3829 55.2841C47.6868 56.5881 51.5986 55.2841 51.5986 52.6763Z" fill="#DCA04D"/>
<path d="M51.5986 50.0685C47.6868 48.7646 45.079 51.3724 43.7751 52.6763C43.7751 52.6763 43.7751 52.6763 42.4712 53.9802C41.1673 52.6763 42.4712 51.3724 41.1673 50.0685C42.4712 48.7646 42.4712 48.7646 42.4712 48.7646C43.7751 47.4607 46.3829 47.4607 48.9907 47.4607C48.9907 47.4607 48.9907 47.4607 50.2946 48.7646L51.5986 50.0685Z" fill="#E8B24F"/>
<path d="M60.7259 9.64722L67.2455 10.9511L64.6377 13.559L60.7259 12.255V9.64722Z" fill="#7B7979"/>
<path d="M62.0299 10.9511V8.34331C60.7259 7.03939 59.422 5.73548 59.422 5.73548C55.5103 4.43157 54.2064 5.73548 51.5986 8.34331C52.9025 9.64722 51.5986 10.9511 52.9025 12.255C52.9025 12.255 54.2064 13.559 56.8142 13.559C58.1181 14.8629 62.0299 13.559 62.0299 10.9511Z" fill="#DCA04D"/>
<path d="M62.0299 8.34331C58.1181 7.03939 55.5103 9.64721 54.2064 10.9511C54.2064 10.9511 54.2064 10.9511 52.9025 12.255C51.5986 10.9511 52.9025 9.64722 51.5986 8.34331C52.9025 7.03939 52.9025 7.03939 52.9025 7.03939C54.2064 5.73548 56.8142 5.73548 59.422 5.73548C59.422 5.73548 59.422 5.73548 60.7259 7.03939L62.0299 8.34331Z" fill="#E8B24F"/>
<path d="M77.6768 31.8137C77.6768 34.4215 80.2846 37.0294 80.2846 39.6372C80.2846 42.245 81.5885 43.5489 82.8924 47.4607C82.8924 50.0685 84.1963 51.3724 84.1964 53.9802C82.8924 55.2841 81.5885 56.588 80.2846 55.2841C78.9807 56.588 76.3729 59.1959 75.069 60.4998C72.4611 63.1076 71.1572 67.0193 72.4611 70.9311H56.8142C56.8142 70.9311 54.2064 65.7154 50.2946 61.8037L67.2455 0.519844C68.5494 1.82376 73.7651 4.43158 73.7651 4.43158C78.9807 7.0394 82.8924 10.9511 85.5003 16.1668C84.1963 17.4707 85.5003 18.7746 84.1964 20.0785C84.1964 22.6863 84.1964 25.2942 82.8924 26.5981C82.8924 26.5981 80.2846 26.5981 78.9807 27.902C77.6768 29.2059 77.6768 29.2059 77.6768 31.8137Z" fill="#AD7D3B"/>
<path d="M127.356 334.191C126.834 335.756 126.182 337.19 125.27 338.624C118.359 351.011 104.016 358.313 87.7169 361.573C65.0288 366.267 38.5594 363.007 23.3037 354.793C13.7851 349.447 3.09303 337.972 0.876383 327.15C-0.949094 318.283 0.615598 308.113 5.0489 299.246C4.91851 299.116 4.91851 299.116 4.91851 299.116C7.26555 294.161 10.5253 289.597 14.4371 285.946C14.8282 285.555 15.3498 285.033 16.0018 284.642C19.1311 282.034 21.4782 279.166 23.0429 276.297C34.9085 255.565 13.1331 229.356 12.3508 206.668C11.8292 199.366 11.9596 191.413 15.3498 185.415C16.5233 184.241 16.3929 181.764 17.6968 180.46C21.6086 176.548 28.1281 175.244 31.6487 179.547C33.9957 182.416 33.9957 187.631 33.9957 190.239C36.2124 201.061 41.0369 209.276 52.2505 211.102L76.764 213.449C78.0679 219.968 83.5444 225.445 89.8031 226.488C96.3227 227.792 99.4521 225.705 102.451 220.881C105.45 216.056 105.58 210.971 108.058 205.625C109.753 202.105 111.97 199.106 113.926 198.454C120.706 194.803 124.096 206.016 125.009 209.537C125.009 214.753 123.835 218.795 120.836 223.619C117.055 230.269 111.97 235.615 108.579 242.656C107.406 244.091 107.667 244.351 107.797 244.482C99.3217 265.996 111.318 276.428 122.14 293.248C130.485 306.026 132.963 319.978 127.356 334.191Z" fill="#2D1405"/>
<path d="M126.313 336.538C125.922 337.19 125.661 337.972 125.27 338.624C118.359 351.011 104.016 358.313 87.7169 361.573C65.0288 366.267 38.5594 363.007 23.3037 354.793C13.7851 349.447 3.09303 337.972 0.876383 327.15C-0.949094 318.283 0.615598 308.113 5.0489 299.246C4.91851 299.116 4.91851 299.116 4.91851 299.116C7.13516 295.073 10.0038 291.423 13.1332 288.293C13.7851 287.902 14.3067 287.38 14.6979 286.989C18.74 283.729 21.3478 280.078 23.0429 276.297C32.1703 255.956 11.8293 230.66 10.6557 208.363C10.5253 200.67 11.1773 192.195 15.3498 185.415C16.0017 184.763 16.5233 184.241 17.1753 183.589C19.9135 178.243 26.6938 176.678 31.2575 182.546C32.1703 184.241 32.1703 189.457 32.3007 191.934C34.5173 202.757 39.2114 211.102 50.425 212.927L74.8082 216.708C77.2856 221.794 82.762 227.27 89.1512 228.444C96.3227 230.399 99.9737 226.227 102.451 220.881C105.059 215.665 105.059 210.45 108.058 205.625C108.971 203.93 111.448 201.192 113.143 200.279C119.924 196.628 123.314 207.842 122.923 212.666C123.835 216.187 122.531 220.099 120.836 223.619C117.446 230.66 112.361 236.006 108.579 242.656C107.536 244.221 106.624 245.916 105.711 247.611C98.2786 268.343 110.014 278.775 121.097 295.595C129.312 308.243 131.789 322.195 126.313 336.538Z" fill="#690C0C"/>
<path d="M1.65873 307.852C2.83225 303.81 4.52734 299.768 6.6136 296.117C5.96164 297.029 5.44007 298.072 4.91851 299.116C4.91851 299.116 4.91851 299.116 5.0489 299.246C3.61459 301.984 2.44108 304.983 1.65873 307.852Z" fill="#8A8888"/>
<path d="M4.91851 299.116C5.44007 298.072 5.96164 297.029 6.6136 296.117C7.65672 294.03 8.96063 292.205 10.2645 290.64C11.3077 289.336 12.3508 288.032 13.5243 286.859C13.7851 286.598 14.1763 286.207 14.4371 285.946C14.4371 286.468 14.4371 286.728 14.5675 287.12C14.1763 287.511 13.7851 287.902 13.1332 288.293C12.8724 288.554 12.6116 288.815 12.3508 289.075C9.4822 291.944 7.00477 295.465 4.91851 299.116Z" fill="#35271D"/>
<path d="M87.7169 361.573C65.0288 366.267 38.5594 363.007 23.3037 354.793C19.6527 352.706 15.8714 349.707 12.4812 346.317C6.87438 340.71 2.31069 333.8 0.876383 327.15C-0.427531 321.152 0.0940355 314.371 1.65873 307.852C2.44108 304.983 3.61459 301.984 5.0489 299.246C4.91851 299.116 4.91851 299.116 4.91851 299.116C7.00477 295.465 9.4822 291.944 12.3508 289.075C12.6116 288.815 12.8724 288.554 13.1332 288.293C13.7851 287.902 14.1763 287.511 14.5675 287.12C18.4792 313.719 33.735 350.359 87.7169 361.573Z" fill="#511414"/>
<path d="M49.9035 331.322L78.4591 331.453C78.7199 331.453 78.9807 331.192 78.9807 330.931C78.9807 330.67 78.7199 330.409 78.4591 330.409L49.9035 330.54C49.6427 330.54 49.5123 330.67 49.5123 330.931C49.5123 331.192 49.6427 331.322 49.9035 331.322Z" fill="#C4C3C3"/>
<path d="M77.6768 31.8137C77.6768 34.4215 80.2846 37.0294 80.2846 39.6372C81.5885 43.5489 82.8924 44.8528 82.8924 47.4607C84.1964 48.7646 84.1964 51.3724 84.1964 53.9802C82.8924 55.2841 82.8924 55.2841 81.5885 56.588C78.9807 56.588 76.3729 59.1959 75.069 60.4998C73.7651 64.4115 72.4611 68.3233 73.7651 72.235L56.8142 70.9311C56.8142 70.9311 54.2064 65.7154 51.5986 63.1076L68.5494 1.82376C69.8533 3.12767 75.069 5.73549 75.069 5.73549C78.9807 7.0394 84.1963 12.255 85.5003 16.1668C85.5003 18.7746 85.5003 18.7746 85.5003 21.3824L84.1964 25.2942C82.8924 26.5981 80.2846 26.5981 78.9807 27.902C77.6768 29.2059 77.6768 29.2059 77.6768 31.8137Z" fill="#DCA04D"/>
<path d="M75.1993 247.872C75.1993 247.872 75.069 248.002 74.8082 248.002L53.8152 247.872C53.6848 248.002 53.5544 247.872 53.5544 247.872C53.424 247.741 53.2936 247.611 53.424 247.481L58.1181 72.235C56.8142 70.9311 56.8142 70.9311 56.8142 70.9311L58.1181 72.235L72.4611 70.9311L75.3297 247.481C75.4601 247.611 75.3297 247.741 75.1993 247.872Z" fill="#DCA04D"/>
<path d="M56.8142 70.9311L52.9025 247.481C52.9025 247.742 53.0329 247.872 53.2936 248.133C53.2936 248.393 53.5544 248.393 53.8152 248.393H74.9386C75.1994 248.393 75.3297 248.263 75.4601 248.133C75.7209 247.872 75.8513 247.742 75.8513 247.481L73.7651 72.235C72.4611 70.9311 72.4611 70.9311 72.4611 70.9311L58.1181 69.6272C56.8142 70.9311 56.8142 70.9311 56.8142 70.9311ZM58.1181 72.235L72.4611 70.9311L74.8082 247.481H53.9456L58.1181 72.235Z" fill="#C4C3C3"/>
<path d="M74.8082 238.875H53.9456C53.6848 238.875 53.5544 239.005 53.5544 239.266C53.5544 239.527 53.8152 239.788 54.076 239.788H74.6778C74.9386 239.788 75.1993 239.527 75.1993 239.266C75.1993 239.005 75.069 238.875 74.8082 238.875Z" fill="#C4C3C3"/>
<path d="M74.5474 229.226H54.2064C53.9456 229.226 53.8152 229.356 53.8152 229.617C53.8152 229.878 54.076 230.139 54.3368 230.139H74.6778C74.9386 230.139 75.069 230.008 75.069 229.748C75.069 229.487 74.8082 229.226 74.5474 229.226Z" fill="#C4C3C3"/>
<path d="M74.5474 229.226H54.2064C53.9456 229.226 53.8152 229.356 53.8152 229.617C53.8152 229.878 54.076 230.139 54.3368 230.139H74.6778C74.9386 230.139 75.069 230.008 75.069 229.748C75.069 229.487 74.8082 229.226 74.5474 229.226Z" fill="#C4C3C3"/>
<path d="M74.8082 219.316L54.3368 219.447C54.2064 219.577 53.9456 219.838 53.9456 219.838C53.8152 219.968 53.8152 219.968 53.9456 219.838L73.8954 221.011C75.3297 219.838 75.3297 219.838 75.1994 219.707C75.069 219.577 74.9386 219.447 74.8082 219.316Z" fill="#C4C3C3"/>
<path d="M74.1562 210.841L54.9887 210.971C54.8583 211.102 54.5976 211.362 54.4672 211.493C54.3368 211.623 54.3368 211.623 54.4672 211.493L74.6778 211.362C74.8082 211.493 74.8082 211.493 74.6778 211.362C74.5474 211.232 74.2866 210.971 74.1562 210.841Z" fill="#C4C3C3"/>
<path d="M73.765 200.018L54.2064 201.322H75.069C75.069 201.322 75.0689 201.322 73.765 200.018Z" fill="#C4C3C3"/>
<path d="M75.069 190.891H54.2064L55.5103 192.195H73.7651C73.7651 192.195 73.7651 192.195 75.069 190.891Z" fill="#C4C3C3"/>
<path d="M75.069 180.46H54.2064C55.5103 181.764 55.5103 181.764 55.5103 181.764H73.7651C73.7651 181.764 73.7651 181.764 75.069 180.46Z" fill="#C4C3C3"/>
<path d="M73.7651 168.724H55.5103C54.2064 170.028 54.2064 170.028 56.8142 170.028H72.4612C75.069 170.028 75.069 170.028 73.7651 168.724Z" fill="#C4C3C3"/>
<path d="M73.7651 158.293H55.5103C55.5103 158.293 55.5103 158.293 54.2064 159.597C55.5103 160.901 55.5103 160.901 55.5103 160.901H73.7651C73.7651 160.901 73.7651 160.901 75.069 159.597C73.7651 158.293 73.7651 158.293 73.7651 158.293Z" fill="#C4C3C3"/>
<path d="M72.4612 146.558H56.8142L55.5103 147.862H73.7651L72.4612 146.558Z" fill="#C4C3C3"/>
<path d="M73.7651 134.823H55.5103C56.8142 136.127 56.8142 136.127 56.8142 136.127H72.4611L73.7651 134.823Z" fill="#C4C3C3"/>
<path d="M73.7651 121.784H55.5103C56.8142 123.088 56.8142 123.088 56.8142 123.088H72.4611L73.7651 121.784Z" fill="#C4C3C3"/>
<path d="M72.4611 91.7937L58.1181 93.0976C58.1181 93.0976 58.1181 93.0976 56.8142 94.4015H72.4611L73.765 93.0976C73.765 93.0976 73.765 93.0976 72.4611 91.7937Z" fill="#C4C3C3"/>
<path d="M74.7428 247.415H67.9625L67.8321 239.722H74.6124L74.7428 247.415ZM74.7428 238.81H67.9625L67.8321 230.073H74.6124L74.7428 238.81ZM74.4821 229.161H67.9625L67.8321 220.424L73.8301 220.946L74.4821 229.161ZM74.7428 219.251L67.9625 219.512L67.5713 212.079L74.6124 211.297L74.7428 219.251ZM74.0909 210.775L68.4841 210.384L67.1802 201.257H75.0036L74.0909 210.775Z" fill="black"/>
<path d="M71.418 250.871L98.0178 224.271L71.1572 197.411L44.5574 224.01L71.418 250.871Z" fill="#CE873A"/>
<path d="M74.6778 239.788L67.8974 239.788L68.0278 238.875L74.8082 238.875L74.6778 239.788Z" fill="#B59A75"/>
<path d="M74.6778 230.139L67.8974 230.139L68.0278 229.226L74.5474 229.226L74.6778 230.139Z" fill="#B59A75"/>
<path d="M73.8954 221.011L67.8974 220.49L68.0278 219.577L74.8082 219.316L73.8954 221.011Z" fill="#B59A75"/>
<path d="M74.6778 211.362L67.6367 212.145L68.5494 210.45L74.1562 210.841L74.6778 211.362Z" fill="#B59A75"/>
<path d="M73.765 200.018H68.5494V192.195L73.7651 192.195L73.765 200.018Z" fill="#CE873A"/>
<path d="M75.069 190.891H67.2455L68.5494 181.764H73.7651L75.069 190.891Z" fill="#CE873A"/>
<path d="M73.7651 181.764L67.2455 180.46V170.028L72.4612 170.028L73.7651 181.764Z" fill="#CE873A"/>
<path d="M73.7651 168.724L68.5494 168.724L67.2455 159.597L73.7651 160.901V168.724Z" fill="#CE873A"/>
<path d="M73.7651 158.293L67.2455 159.597L68.5494 147.862H73.7651L73.7651 158.293Z" fill="#CE873A"/>
<path d="M72.4612 146.558H67.2455V136.127H72.4611L72.4612 146.558Z" fill="#CE873A"/>
<path d="M75.069 201.322H67.2455L68.5494 200.018H73.765L75.069 201.322Z" fill="#B59A75"/>
<path d="M73.7651 192.195L68.5494 192.195L67.2455 190.891H75.069L73.7651 192.195Z" fill="#B59A75"/>
<path d="M73.7651 181.764H68.5494L67.2455 180.46L73.7651 181.764Z" fill="#B59A75"/>
<path d="M72.4612 170.028L67.2455 170.028L68.5494 168.724L73.7651 168.724L72.4612 170.028Z" fill="#B59A75"/>
<path d="M73.7651 160.901L67.2455 159.597L73.7651 158.293V160.901Z" fill="#B59A75"/>
<path d="M73.7651 147.862H68.5494L67.2455 146.558H72.4612L73.7651 147.862Z" fill="#B59A75"/>
<path d="M73.7651 134.823H68.5494L67.2455 123.088H72.4611L73.7651 134.823Z" fill="#CE873A"/>
<path d="M73.7651 121.784H68.5494L67.2455 107.441H72.4611L73.7651 121.784Z" fill="#CE873A"/>
<path d="M72.4611 107.441H67.2455L68.5494 93.0976L72.4611 94.4015L72.4611 107.441Z" fill="#CE873A"/>
<path d="M72.4611 136.127H67.2455L68.5494 134.823H73.7651L72.4611 136.127Z" fill="#B59A75"/>
<path d="M72.4611 123.088H67.2455L68.5494 121.784H73.7651L72.4611 123.088Z" fill="#B59A75"/>
<path d="M72.4611 91.7937L68.5494 93.0976L68.5494 72.235L72.4611 70.9311L72.4611 91.7937Z" fill="#CE873A"/>
<path d="M72.4611 94.4015L68.5494 93.0976L72.4611 91.7937V94.4015Z" fill="#B59A75"/>
<path d="M69.8533 13.5589L68.5494 14.8629C65.9416 14.8629 65.9416 14.8629 65.9416 12.255L67.2455 10.9511C68.5494 9.64722 69.8533 10.9511 69.8533 10.9511C69.8533 10.9511 71.1572 12.255 69.8533 13.5589Z" fill="#B58A6D"/>
<path d="M69.8533 13.5589L68.5494 14.8629C67.2455 13.5589 67.2455 13.559 67.2455 13.559C67.2455 10.9511 67.2455 10.9511 69.8533 10.9511C69.8533 10.9511 71.1572 12.255 69.8533 13.5589Z" fill="white"/>
<path d="M62.0299 42.245C63.3338 43.5489 62.0299 44.8528 60.7259 43.5489C59.422 44.8528 58.1181 43.5489 59.422 42.245C58.1181 40.9411 59.422 39.6372 60.7259 40.9411L62.0299 39.6372C63.3338 40.9411 63.3338 40.9411 62.0299 42.245Z" fill="#B58A6D"/>
<path d="M62.0299 42.245C63.3338 43.5489 62.0299 44.8528 60.7259 43.5489L59.422 42.245C59.422 42.245 60.7259 40.9411 62.0299 39.6372C63.3338 40.9411 63.3338 40.9411 62.0299 42.245Z" fill="white"/>
<path d="M65.9416 27.902C67.2455 29.2059 65.9416 30.5098 64.6377 29.2059C63.3338 30.5098 62.0298 29.2059 63.3338 27.902C62.0298 26.5981 63.3338 25.2942 64.6377 26.5981L65.9416 25.2942C67.2455 26.5981 67.2455 26.5981 65.9416 27.902Z" fill="#B58A6D"/>
<path d="M65.9416 27.902C67.2455 29.2059 65.9416 30.5098 64.6377 29.2059C64.6377 29.2059 64.6377 29.2059 63.3338 27.902L64.6377 26.5981C65.9416 25.2942 65.9416 25.2942 65.9416 25.2942C67.2455 26.5981 67.2455 26.5981 65.9416 27.902Z" fill="white"/>
<path d="M60.7259 53.9802C59.422 55.2841 58.1181 56.588 58.1181 56.588C56.8142 55.2841 56.8142 55.2841 56.8142 55.2841L55.5103 53.9802C54.2064 52.6763 55.5103 51.3724 58.1181 51.3724C58.1181 51.3724 58.1181 51.3724 59.422 52.6763C59.422 52.6763 59.422 52.6763 60.7259 53.9802Z" fill="#B58A6D"/>
<path d="M60.7259 53.9802C59.422 55.2841 58.1181 56.588 58.1181 56.588C56.8142 55.2841 56.8142 55.2841 56.8142 55.2841C56.8142 55.2841 56.8142 55.2841 55.5103 53.9802C56.8142 52.6763 56.8142 52.6763 58.1181 51.3724C58.1181 51.3724 58.1181 51.3724 59.422 52.6763C59.422 52.6763 59.422 52.6763 60.7259 53.9802Z" fill="white"/>
<path d="M82.8924 55.2841L81.5885 56.588C80.2846 57.892 77.6768 57.8919 76.3729 59.1959C76.3729 59.1959 76.3729 59.1959 75.069 60.4998C81.5885 25.2942 72.4611 8.34331 68.5494 1.82376C69.8533 3.12767 75.069 5.73549 75.069 5.73549C77.6768 5.73549 78.9807 7.03939 81.5885 9.64721C82.8924 10.9511 85.5003 13.559 85.5003 16.1668C85.5003 18.7746 85.5003 18.7746 85.5003 21.3824L84.1964 25.2942C82.8924 26.5981 80.2846 26.5981 78.9807 27.902C77.6768 29.2059 77.6768 29.2059 77.6768 31.8137C77.6768 34.4215 80.2846 37.0294 80.2846 39.6372C81.5885 43.5489 82.8924 44.8528 82.8924 47.4607C84.1964 48.7646 84.1964 51.3724 84.1964 53.9802C84.1964 53.9802 84.1964 53.9802 82.8924 55.2841Z" fill="#E8AF3F"/>
<path d="M80.8062 333.539H49.7731L49.7731 317.631H80.8062V333.539Z" fill="#918F90"/>
<path d="M83.414 270.69C83.414 272.516 82.2405 273.95 80.9366 273.95L49.6427 273.95C48.078 273.95 47.1653 272.516 47.0349 270.821C47.0349 268.995 48.2084 267.561 49.5123 267.561L80.9366 267.431C82.3709 267.561 83.414 268.865 83.414 270.69Z" fill="#A09F9F"/>
<path d="M83.5444 269.778C83.414 271.473 82.3709 273.037 80.9366 272.907L49.5123 273.037C48.2084 273.037 47.0349 271.603 47.0349 269.778C47.0349 267.952 48.2084 266.518 49.5123 266.518L80.9366 266.648C82.3709 266.518 83.414 268.083 83.5444 269.778Z" fill="white"/>
<path d="M52.5113 269.778C52.5113 270.56 51.8593 271.212 51.2074 271.082C50.425 271.082 49.9035 270.56 49.9035 269.778C49.7731 269.126 50.425 268.474 51.2074 268.474C51.9897 268.474 52.5113 268.995 52.5113 269.778Z" fill="#605E5E"/>
<path d="M57.9877 269.778C57.9877 270.56 57.3358 271.212 56.6838 271.082C55.9015 271.082 55.3799 270.56 55.3799 269.778C55.2495 269.126 55.9015 268.474 56.6838 268.474C57.4662 268.474 57.9877 268.995 57.9877 269.778Z" fill="#605E5E"/>
<path d="M63.7249 269.778C63.7249 270.56 63.073 271.212 62.2906 271.212C61.5083 271.212 60.8563 270.56 60.8563 269.778C60.8563 268.995 61.5083 268.343 62.2906 268.343C62.9426 268.474 63.5945 269.126 63.7249 269.778Z" fill="#605E5E"/>
<path d="M69.071 269.908C69.071 270.69 68.5494 271.212 67.7671 271.212C66.9847 271.212 66.3328 270.56 66.3328 269.778C66.3328 268.995 66.8543 268.474 67.6367 268.474C68.419 268.474 69.071 269.126 69.071 269.908Z" fill="#605E5E"/>
<path d="M74.5474 269.908C74.5474 270.69 74.0258 271.212 73.2435 271.212C72.4611 271.212 71.8092 270.56 71.8092 269.778C71.8092 268.995 72.3307 268.474 73.1131 268.474C73.8954 268.474 74.5474 269.126 74.5474 269.908Z" fill="#605E5E"/>
<path d="M80.1542 269.778C80.1542 270.56 79.5023 271.212 78.7199 271.212C77.9376 271.212 77.2856 270.56 77.2856 269.778C77.416 269.126 78.068 268.474 78.7199 268.343C79.5023 268.343 80.1542 268.995 80.1542 269.778Z" fill="#605E5E"/>
<path d="M82.5013 295.595C82.5013 297.16 81.3277 298.594 80.0238 298.594L49.9035 298.724C48.5995 298.724 47.5564 297.16 47.5564 295.595C47.5564 293.77 48.5995 292.466 49.9035 292.466H80.1542C81.4581 292.466 82.5013 293.77 82.5013 295.595Z" fill="#A09F9F"/>
<path d="M82.5013 294.552C82.5013 296.377 81.4581 297.681 80.1542 297.681H49.9035C48.5995 297.681 47.5564 296.377 47.5564 294.552C47.5564 292.987 48.5995 291.683 50.0339 291.553H80.0238C81.3277 291.553 82.5013 292.987 82.5013 294.552Z" fill="white"/>
<path d="M52.7721 294.552C52.7721 295.334 52.1201 295.986 51.4682 295.856C50.8162 295.986 50.1642 295.334 50.1642 294.552C50.0339 293.9 50.6858 293.248 51.4682 293.248C52.2505 293.248 52.9025 293.9 52.7721 294.552Z" fill="#605E5E"/>
<path d="M58.1181 294.682C57.9877 295.334 57.4662 295.856 56.8142 295.986C56.0319 295.986 55.3799 295.334 55.3799 294.552C55.5103 293.9 56.0319 293.378 56.6838 293.248C57.4662 293.248 58.1181 293.9 58.1181 294.682Z" fill="#605E5E"/>
<path d="M63.4641 294.552C63.4641 295.334 62.8122 295.986 62.0298 295.986C61.3779 295.856 60.8563 295.334 60.7259 294.682C60.7259 293.9 61.3779 293.248 62.1602 293.248C62.8122 293.378 63.3338 293.9 63.4641 294.552Z" fill="#605E5E"/>
<path d="M68.5494 294.682C68.6798 295.334 68.0278 295.986 67.2455 295.986C66.5935 296.117 65.9416 295.465 65.9416 294.682C65.9416 293.9 66.5935 293.248 67.2455 293.378C68.0278 293.378 68.6798 294.03 68.5494 294.682Z" fill="#605E5E"/>
<path d="M74.0258 294.682C73.8954 295.334 73.2435 295.986 72.5915 296.117C71.9396 295.986 71.2876 295.334 71.1572 294.682C71.2876 294.03 71.9396 293.378 72.5915 293.248C73.2435 293.378 73.8954 294.03 74.0258 294.682Z" fill="#605E5E"/>
<path d="M79.2415 294.682C79.2415 295.465 78.7199 295.986 77.9376 295.986C77.1552 295.986 76.6337 295.465 76.6337 294.682C76.6337 293.9 77.1552 293.378 77.9376 293.378C78.7199 293.378 79.2415 293.9 79.2415 294.682Z" fill="#605E5E"/>
<path d="M49.2515 332.757C49.1211 333.148 49.5123 333.539 49.9035 333.408C50.2946 333.539 50.6858 333.148 50.5554 332.757V318.414C50.6858 318.022 50.2946 317.631 49.9035 317.762C49.5123 317.631 49.1211 318.022 49.2515 318.414V332.757Z" fill="#918F90"/>
<path d="M80.0238 332.757C80.1542 333.148 80.415 333.408 80.8062 333.539C81.1974 333.408 81.4581 333.148 81.5885 332.757V318.414C81.4581 318.022 81.1974 317.762 80.8062 317.631C80.415 317.762 80.1542 318.022 80.0238 318.414V332.757Z" fill="#918F90"/>
<path d="M69.8533 70.931L72.9827 330.931L73.6347 330.801L71.1572 72.235" fill="white"/>
<path d="M61.5083 330.931L64.6377 70.9311L62.0299 42.245L60.7259 40.9411L63.3338 72.235L60.9867 330.931H61.5083Z" fill="white"/>
<path d="M59.422 70.9311L56.0319 330.931H56.5534L60.7259 72.235" fill="white"/>
<path d="M71.1572 72.235L68.5494 12.255L69.8533 70.931" fill="white"/>
<path d="M68.5494 12.255C69.8533 13.559 69.8533 13.559 67.2455 13.559C68.5494 12.255 68.5494 12.255 68.5494 12.255Z" fill="#8F8D8D"/>
<path d="M58.1181 53.9802C58.1181 53.9802 58.1181 53.9802 56.8142 55.2841C56.8142 55.2841 56.8142 55.2841 55.5103 53.9802C56.8142 52.6763 56.8142 52.6763 56.8142 52.6763C58.1181 53.9802 58.1181 53.9802 58.1181 53.9802Z" fill="#8F8D8D"/>
<path d="M64.6377 29.2059L67.2455 70.9311L66.9847 330.931H67.7671L67.2455 70.9311L65.9416 27.902L64.6377 29.2059Z" fill="white"/>
<path d="M57.5965 318.935V331.974H53.9456L53.8152 319.065L57.5965 318.935Z" fill="#B0AEAF"/>
<path d="M56.5534 319.196V327.541C56.5534 328.062 56.1623 328.454 55.7711 328.323C55.2495 328.323 54.9887 328.062 54.9887 327.541V319.196C54.9887 319.196 54.9887 319.196 54.9887 318.935L56.423 319.065L56.5534 319.196Z" fill="#464344"/>
<path d="M61.2475 318.935V331.974L57.5965 331.974V318.935H61.2475Z" fill="#B0AEAF"/>
<path d="M60.2044 319.196V327.541C60.2044 328.062 59.9436 328.323 59.422 328.323C58.9005 328.323 58.6397 328.062 58.6397 327.541V319.196L58.7701 319.065L60.2044 318.935C60.2044 319.196 60.2044 319.196 60.2044 319.196Z" fill="#464344"/>
<path d="M65.0288 319.065L64.8984 331.974L61.2475 331.974V318.935L65.0288 319.065Z" fill="#B0AEAF"/>
<path d="M63.8553 319.196V327.541C63.9857 327.932 63.5946 328.323 63.073 328.323C62.8122 328.323 62.421 327.932 62.2906 327.541L62.421 319.326C62.421 319.065 62.421 319.065 62.421 319.065L63.8553 318.935C63.9857 319.065 63.8553 319.196 63.8553 319.196Z" fill="#464344"/>
<path d="M68.6798 319.065L68.8102 331.974L64.8984 331.974L65.0288 319.065L68.6798 319.065Z" fill="#B0AEAF"/>
<path d="M67.6367 319.326V327.671C67.6367 327.932 67.2455 328.323 66.9847 328.323C66.4632 328.323 66.072 327.932 66.2024 327.541L66.072 319.326C66.072 319.065 66.072 319.065 66.2024 318.935L67.6367 319.065C67.6367 319.065 67.6367 319.065 67.6367 319.326Z" fill="#464344"/>
<path d="M72.4611 318.935V331.974H68.8102L68.6798 319.065L72.4611 318.935Z" fill="#B0AEAF"/>
<path d="M71.418 319.196V327.541C71.2876 327.932 70.8965 328.323 70.6357 328.323C70.1141 328.323 69.8533 328.062 69.8533 327.541V319.196C69.8533 319.196 69.7229 319.065 69.8533 318.935L71.2876 319.065L71.418 319.196Z" fill="#464344"/>
<path d="M76.1121 318.935V331.974H72.4611V318.935H76.1121Z" fill="#B0AEAF"/>
<path d="M75.069 319.196V327.541C75.069 328.062 74.8082 328.323 74.2866 328.323C73.7651 328.323 73.5043 328.062 73.5043 327.541V319.196L73.6347 319.065L75.069 318.935C74.9386 319.065 75.069 319.196 75.069 319.196Z" fill="#464344"/>
<path d="M62.0299 42.245C60.7259 43.5489 60.7259 43.5489 60.7259 43.5489C59.422 42.245 59.422 42.245 60.7259 40.9411C60.7259 40.9411 60.7259 40.9411 62.0299 42.245Z" fill="#8F8D8D"/>
<path d="M65.9416 27.902C64.6377 29.2059 64.6377 29.2059 64.6377 29.2059C64.6377 29.2059 63.3338 27.902 64.6377 26.5981L65.9416 27.902Z" fill="#8F8D8D"/>
</g>
</svg>
