<svg width="119" height="174" viewBox="0 0 119 174" fill="none" xmlns="http://www.w3.org/2000/svg">
<g id="faucille">
<path id="svg_2" d="M54.4113 104.832C52.2559 108.505 52.5219 110.888 53.5802 113.492H64.922C66.2185 109.298 65.3985 107.99 63.6864 104.832C59.7027 104.765 57.841 104.344 54.4113 104.832Z" fill="#552200" stroke="black" stroke-width="3"/>
<path id="svg_3" d="M55.0263 171.42C59.5697 172.844 63.836 172.683 67.8087 170.805C69.1496 166.716 70.0915 162.222 69.2493 155.956C68.0026 149.944 64.1131 140.741 66.5731 133.283C68.6398 127.621 69.9474 116.85 64.922 113.492C60.4562 113.769 58.0515 113.215 53.5857 113.492C49.9344 116.428 49.1531 122.257 51.109 129.155C53.7685 135.134 55.1759 141.467 53.9957 148.537C52.4 155.812 50.7544 163.076 55.0263 171.42Z" fill="#552200" stroke="black" stroke-width="3"/>
<path id="svg_4" d="M114.539 31.9657C104.704 22.4689 80.7685 2.62759 57.6138 2.03474C34.0103 1.35877 6.24025 10.3126 2.04039 49.6572C1.2259 75.8205 12.8171 88.6639 29.0071 95.3515C38.9914 99.5071 43.4129 99.5791 49.8956 100.781C52.7768 101.208 53.5525 101.646 54.4113 104.826C56.6774 102.931 57.5141 100.327 57.3866 95.3349C-30.8992 80.9623 16.9338 -32.9494 114.539 31.9657Z" fill="#4D4D4D" stroke="black" stroke-width="3" stroke-linecap="round" stroke-linejoin="round"/>
<path id="svg_5" d="M54.4113 104.832C55.5748 102.011 55.2978 100.637 53.5802 98.2382C41.4017 96.0164 31.7497 93.44 19.7707 84.4197C11.3765 76.6571 7.19879 69.6703 6.88851 53.0592C6.54499 33.0572 16.6568 17.6097 35.0298 9.17118C64.2959 -1.95459 93.2905 12.4513 117.498 34.7361C104.178 26.3252 89.9716 19.2497 73.3772 15.7646C63.6199 13.709 53.8572 14.4681 44.1 16.7952C16.3244 24.6575 11.7477 61.8579 27.8103 78.4413C34.7473 85.345 47.8954 91.6005 63.2709 93.2904C64.6228 97.1356 65.0605 100.981 63.6864 104.832H54.4113Z" fill="#666666" stroke="black" stroke-width="3" stroke-linejoin="round"/>
</g>
</svg>
