<svg width="113" height="32" viewBox="0 0 113 32" fill="none" xmlns="http://www.w3.org/2000/svg">
<g id="laurier">
<mask id="path-1-inside-1_61_108" fill="white">
<path d="M109.402 19.5788C105.28 21.4745 100.826 16.6715 96.2763 10.309C104.557 13.4972 110.073 16.5774 109.402 19.5788Z"/>
<path d="M110.563 22.338C110.96 28 105.181 30.0847 99.0227 31.9675C103.187 26.0549 107.265 20.4863 110.563 22.338Z"/>
<path d="M101.636 21.1905C97.0381 22.1514 92.9795 18.435 89.1835 12.6681C96.2386 14.1338 100.902 16.7119 101.636 21.1905Z"/>
<path d="M100.859 23.8432C100.337 28.5786 94.2074 29.3086 87.2479 29.4026C92.4099 25.0916 97.3559 21.7364 100.859 23.8432Z"/>
<path d="M92.2617 20.2433C88.3514 21.3752 84.4363 17.2972 80.5159 11.1235C87.1807 13.5982 91.8572 16.4266 92.2617 20.2433Z"/>
<path d="M93.0839 22.7247C90.1333 21.5931 86.5024 23.8471 82.4894 27.5526C88.248 27.0632 92.6587 25.9053 93.0839 22.7247Z"/>
<path d="M86.9037 21.6272C83.6448 20.5262 80.1041 22.2443 76.4282 24.7663C82.0514 25.0809 86.4655 24.5575 86.9037 21.6272Z"/>
<path d="M84.1157 19.3654C78.5472 18.3986 76.1462 14.4932 74.6084 9.879C80.8569 12.8623 84.1794 16.0411 84.1157 19.3654Z"/>
<path d="M80.2826 19.7111C78.2841 18.1613 74.1331 18.9219 69.1544 20.5076C73.3641 22.017 77.2539 22.4801 80.2826 19.7111Z"/>
<path d="M75.1168 15.6977C71.7983 15.4411 69.5251 12.5771 68.3148 7.16371C72.8006 9.16064 75.3643 11.9358 75.1168 15.6977Z"/>
<path d="M73.1189 16.4356C73.0458 14.742 63.8704 15.0686 63.7076 16.1988C67.3978 18.5025 70.613 19.0448 73.1189 16.4356Z"/>
<path d="M67.7288 12.9356C65.7802 10.9257 62.4748 10.9194 58.4304 12.0287C62.3045 13.8949 65.6085 14.7278 67.7288 12.9356Z"/>
<path d="M63.5137 9.33063C62.3334 7.34 59.6137 6.96396 56.0259 7.48885C58.872 9.73288 61.4966 10.8371 63.5137 9.33063Z"/>
<path d="M63.3456 8.36517C59.5201 6.86548 58.2475 3.94974 58.0076 0.464029C61.7026 2.57562 63.6369 5.16197 63.3456 8.36517Z"/>
<path d="M66.8048 9.91331C64.3756 9.44845 63.9437 5.9579 64.3492 1.25804C66.6388 5.00682 68.1343 8.23576 66.8048 9.91331Z"/>
<path d="M112.009 20.1174L111.861 20.8776C110.606 21.1344 107.25 21.8893 105.976 22.088C103.371 22.503 100.771 22.726 98.1583 22.6986C95.5049 22.7472 92.8967 22.5278 90.3335 22.0403C87.7301 21.6288 85.1895 21.0073 82.694 20.1178L81.7788 19.8256C81.4931 19.7223 81.1896 19.5609 80.9039 19.4576L80.4084 19.2913C80.2567 19.2106 80.1227 19.188 79.971 19.1073L79.0961 18.7392L78.2034 18.313L77.3285 17.945L75.5433 17.0926C73.2672 15.8818 71.0718 14.5193 68.9571 13.005C67.8997 12.2478 66.9005 11.4729 65.8834 10.6399C65.3749 10.2234 64.9245 9.78909 64.4741 9.35481C63.9655 8.93829 63.5151 8.50401 63.0469 8.01161C63.0469 8.01161 63.0292 7.95349 63.0695 7.8776C63.0695 7.8776 63.1276 7.85984 63.1454 7.91796C63.4488 8.0794 63.6942 8.2586 63.9574 8.49592C64.2027 8.67511 64.4078 8.9302 64.7113 9.09163C64.9566 9.27083 65.202 9.45003 65.4651 9.68735C65.7105 9.86655 65.9559 10.0457 66.2013 10.2249C66.4644 10.4623 66.7098 10.6415 66.9552 10.8207L67.3523 11.0806L67.7671 11.3986C68.0125 11.5778 68.2579 11.757 68.5614 11.9184L68.9004 12.1961L69.3153 12.5142C69.6187 12.6756 69.8641 12.8548 70.1095 13.034L70.9037 13.5538C71.2072 13.7153 71.4525 13.8945 71.756 14.0559L72.5502 14.5757L72.7778 14.6968C72.8537 14.7372 72.8715 14.7953 72.9473 14.8356L73.3848 15.0197C73.6302 15.1989 73.9336 15.3603 74.179 15.5395L75.0717 15.9657C75.1653 16.0642 75.317 16.1449 75.4688 16.2256L75.9062 16.4096L76.7408 16.8536L77.6334 17.2798L78.0709 17.4638L78.5261 17.706L80.2758 18.4421C80.4276 18.5228 80.5615 18.5454 80.7133 18.6261L81.1507 18.8102C81.4364 18.9135 81.7802 18.999 82.0659 19.1023L82.9989 19.4526C85.4007 20.2436 87.8832 20.8828 90.4286 21.3122C95.5193 22.1708 100.745 22.2255 105.821 21.3727C106.838 21.2141 110.697 20.427 112.009 20.1174Z"/>
<path d="M112.228 20.3036L112.246 20.3617L110.102 23.1146C110.062 23.1905 109.928 23.1679 109.91 23.1097C109.834 23.0694 109.816 23.0113 109.857 22.9354L111.647 20.4812C110.902 20.3279 109.018 19.5692 108.96 19.5869C108.884 19.5466 108.848 19.4303 108.889 19.3544C108.871 19.2963 108.987 19.2608 109.063 19.3012C109.063 19.3012 111.366 20.1858 112.175 20.1292C112.175 20.1292 112.193 20.1874 112.211 20.2455C112.211 20.2455 112.211 20.2455 112.228 20.3036Z"/>
<path d="M106.004 21.7618C106.021 21.8199 105.981 21.8958 105.923 21.9136L100.21 24.4228C100.152 24.4406 100.076 24.4002 100 24.3599C99.9648 24.2436 100.005 24.1677 100.121 24.1322L105.271 21.8587C104.043 21.7894 101.359 21.5296 100.015 20.6691C99.9396 20.6287 99.9218 20.5706 99.9622 20.4947C100.002 20.4189 100.061 20.4011 100.136 20.4415C101.859 21.5037 105.834 21.623 105.892 21.6052C105.968 21.6456 106.044 21.6859 106.062 21.7441C106.062 21.7441 106.062 21.7441 106.004 21.7618Z"/>
<path d="M94.9786 22.2726L94.9964 22.3307C94.9561 22.4066 94.898 22.4243 94.898 22.4243L91.814 23.5579C91.6978 23.5934 91.6219 23.553 91.6041 23.4949C91.5864 23.4368 91.6089 23.3028 91.667 23.285L94.5364 22.2807L90.5038 19.0648C90.4279 19.0244 90.3924 18.9082 90.4327 18.8323C90.5489 18.7968 90.607 18.779 90.6829 18.8194L94.885 22.1741C94.9609 22.2144 94.9786 22.2726 94.9786 22.2726Z"/>
<path d="M88.3739 21.2412C88.3336 21.3171 88.3514 21.3752 88.2933 21.393L85.8661 22.3893C85.808 22.407 85.674 22.3844 85.6385 22.2682C85.6207 22.2101 85.6611 22.1342 85.7192 22.1164L87.7574 21.3026L85.2168 20.6812C85.2168 20.6812 85.1587 20.6989 85.141 20.6408L82.4788 17.9592C82.461 17.9011 82.4255 17.7849 82.4836 17.7671C82.5239 17.6912 82.6579 17.7138 82.7337 17.7542L85.3378 20.4535L88.2625 21.0846C88.2803 21.1428 88.3562 21.1831 88.3739 21.2412Z"/>
<path d="M82.5163 19.5366C82.476 19.6125 82.4357 19.6884 82.3776 19.7061L78.9641 20.1777C78.8882 20.1374 78.8124 20.097 78.7946 20.0389C78.7768 19.9808 78.8172 19.9049 78.9334 19.8694L82.3468 19.3978C82.4049 19.38 82.4985 19.4785 82.5163 19.5366Z"/>
<path d="M76.941 17.3008C76.941 17.3008 76.9588 17.3589 76.9007 17.3767C76.8603 17.4526 76.8022 17.4703 76.7264 17.43L74.5795 16.4339L71.4436 16.5665C71.3855 16.5842 71.3096 16.5439 71.2741 16.4276C71.2563 16.3695 71.3547 16.2759 71.4306 16.3162L74.6069 16.1078L74.6827 16.1481L76.0887 16.7987L74.287 15.0616C74.2111 15.0212 74.2337 14.8872 74.2918 14.8695C74.3321 14.7936 74.4661 14.8162 74.4839 14.8743L76.9055 17.1846C76.9232 17.2427 76.9232 17.2427 76.941 17.3008Z"/>
<path d="M69.8819 12.9129L69.8996 12.971C69.8593 13.0469 69.8012 13.0647 69.7431 13.0824L66.5313 13.1746C66.4151 13.2102 66.3392 13.1698 66.3796 13.0939C66.344 12.9777 66.4021 12.9599 66.5183 12.9244L69.212 12.7999L67.0522 11.5536C66.9941 11.5714 66.9763 11.5133 66.9763 11.5133L66.1378 8.14706C66.1022 8.03082 66.1425 7.95494 66.2006 7.93717C66.3168 7.90165 66.3927 7.94201 66.4282 8.05825L67.249 11.3663L69.7882 12.8144C69.8641 12.8548 69.8641 12.8548 69.8819 12.9129Z"/>
<path d="M65.1617 9.52591C65.1213 9.60179 65.081 9.67768 64.9648 9.7132L62.5486 9.49859C62.4905 9.51636 62.3969 9.41788 62.3791 9.35975C62.4194 9.28387 62.4598 9.20799 62.5937 9.23058L64.9922 9.38707C65.068 9.42743 65.1439 9.46779 65.1617 9.52591Z"/>
<path d="M2.95863 19.5788C7.08024 21.4745 11.5345 16.6715 16.0844 10.309C7.80384 13.4972 2.28802 16.5774 2.95863 19.5788Z"/>
<path d="M1.79743 22.338C1.40048 28 7.1796 30.0847 13.3381 31.9675C9.17396 26.0549 5.0953 20.4863 1.79743 22.338Z"/>
<path d="M10.7247 21.1905C15.3227 22.1514 19.3813 18.435 23.1773 12.6681C16.1222 14.1337 11.4587 16.7119 10.7247 21.1905Z"/>
<path d="M11.5019 23.8432C12.0236 28.5786 18.1533 29.3086 25.1128 29.4026C19.9508 25.0916 15.0048 21.7364 11.5019 23.8432Z"/>
<path d="M20.099 20.2433C24.0094 21.3752 27.9244 17.2972 31.8448 11.1235C25.18 13.5982 20.5035 16.4266 20.099 20.2433Z"/>
<path d="M19.2768 22.7247C22.2275 21.5931 25.8583 23.8471 29.8713 27.5526C24.1127 27.0632 19.702 25.9053 19.2768 22.7247Z"/>
<path d="M25.4571 21.6272C28.716 20.5262 32.2566 22.2442 35.9326 24.7663C30.3094 25.0808 25.8953 24.5575 25.4571 21.6272Z"/>
<path d="M28.245 19.3654C33.8135 18.3986 36.2146 14.4932 37.7523 9.87899C31.5038 12.8623 28.1813 16.0411 28.245 19.3654Z"/>
<path d="M32.0781 19.7111C34.0767 18.1612 38.2276 18.9219 43.2064 20.5076C38.9967 22.0169 35.1068 22.4801 32.0781 19.7111Z"/>
<path d="M37.244 15.6977C40.5624 15.4411 42.8357 12.5771 44.046 7.16371C39.5602 9.16063 36.9964 11.9358 37.244 15.6977Z"/>
<path d="M39.2419 16.4356C39.315 14.742 48.4904 15.0686 48.6531 16.1987C44.9629 18.5025 41.7477 19.0448 39.2419 16.4356Z"/>
<path d="M44.6319 12.9356C46.5805 10.9257 49.886 10.9194 53.9303 12.0287C50.0563 13.8949 46.7522 14.7278 44.6319 12.9356Z"/>
<path d="M48.847 9.33062C50.0274 7.33999 52.747 6.96395 56.3348 7.48884C53.4887 9.73287 50.8641 10.8371 48.847 9.33062Z"/>
<path d="M49.0151 8.36516C52.8407 6.86548 54.1133 3.94974 54.3531 0.464022C50.6581 2.57561 48.7239 5.16196 49.0151 8.36516Z"/>
<path d="M45.5559 9.9133C47.9851 9.44844 48.417 5.95789 48.0115 1.25804C45.7219 5.00681 44.2265 8.23576 45.5559 9.9133Z"/>
<path d="M0.351815 20.1174L0.499594 20.8776C1.75521 21.1344 5.11107 21.8893 6.38445 22.088C8.98931 22.503 11.5894 22.726 14.2024 22.6986C16.8558 22.7472 19.4641 22.5278 22.0272 22.0403C24.6307 21.6287 27.1713 21.0073 29.6667 20.1178L30.5819 19.8256C30.8676 19.7223 31.1711 19.5609 31.4568 19.4576L31.9523 19.2913C32.1041 19.2106 32.238 19.188 32.3898 19.1073L33.2647 18.7392L34.1573 18.313L35.0322 17.945L36.8175 17.0926C39.0935 15.8818 41.2889 14.5193 43.4037 13.005C44.461 12.2478 45.4603 11.4729 46.4773 10.6399C46.9858 10.2234 47.4363 9.78908 47.8867 9.3548C48.3952 8.93828 48.8456 8.50401 49.3138 8.0116C49.3138 8.0116 49.3316 7.95348 49.2912 7.8776C49.2912 7.8776 49.2331 7.85983 49.2154 7.91796C48.9119 8.07939 48.6665 8.25859 48.4034 8.49591C48.158 8.67511 47.953 8.93019 47.6495 9.09162C47.4041 9.27082 47.1587 9.45002 46.8956 9.68734C46.6502 9.86654 46.4049 10.0457 46.1595 10.2249C45.8963 10.4623 45.651 10.6415 45.4056 10.8207L45.0085 11.0806L44.5936 11.3986C44.3482 11.5778 44.1028 11.757 43.7994 11.9184L43.4604 12.1961L43.0455 12.5142C42.742 12.6756 42.4966 12.8548 42.2513 13.034L41.457 13.5538C41.1536 13.7153 40.9082 13.8945 40.6047 14.0559L39.8105 14.5757L39.5829 14.6968C39.507 14.7372 39.4893 14.7953 39.4134 14.8356L38.976 15.0197C38.7306 15.1989 38.4271 15.3603 38.1817 15.5395L37.2891 15.9657C37.1954 16.0642 37.0437 16.1449 36.892 16.2256L36.4545 16.4096L35.62 16.8536L34.7273 17.2798L34.2899 17.4638L33.8347 17.706L32.0849 18.4421C31.9332 18.5228 31.7992 18.5454 31.6475 18.6261L31.21 18.8101C30.9243 18.9135 30.5805 18.999 30.2948 19.1023L29.3619 19.4526C26.96 20.2436 24.4775 20.8828 21.9322 21.3122C16.8414 22.1708 11.6153 22.2255 6.53958 21.3727C5.52274 21.2141 1.66372 20.427 0.351815 20.1174Z"/>
<path d="M0.13234 20.3036L0.114571 20.3617L2.25882 23.1146C2.29914 23.1905 2.43311 23.1679 2.45088 23.1097C2.52675 23.0694 2.54452 23.0113 2.50419 22.9354L0.713327 20.4812C1.45903 20.3279 3.34276 19.5692 3.40085 19.5869C3.47672 19.5466 3.51226 19.4303 3.47193 19.3544C3.4897 19.2963 3.3735 19.2608 3.29764 19.3011C3.29764 19.3011 0.99424 20.1858 0.185649 20.1292C0.185649 20.1292 0.167879 20.1874 0.15011 20.2455C0.15011 20.2455 0.15011 20.2455 0.13234 20.3036Z"/>
<path d="M6.3571 21.7618C6.33933 21.8199 6.37966 21.8958 6.43776 21.9136L12.1506 24.4228C12.2087 24.4406 12.2846 24.4002 12.3604 24.3599C12.396 24.2436 12.3556 24.1677 12.2394 24.1322L7.08982 21.8587C8.31809 21.7894 11.0022 21.5296 12.3453 20.6691C12.4212 20.6287 12.4389 20.5706 12.3986 20.4947C12.3583 20.4188 12.3002 20.4011 12.2243 20.4414C10.5019 21.5037 6.52661 21.623 6.46851 21.6052C6.39264 21.6456 6.31677 21.6859 6.299 21.7441C6.299 21.7441 6.299 21.7441 6.3571 21.7618Z"/>
<path d="M17.3821 22.2726L17.3643 22.3307C17.4047 22.4066 17.4628 22.4243 17.4628 22.4243L20.5468 23.5579C20.663 23.5934 20.7389 23.553 20.7566 23.4949C20.7744 23.4368 20.7518 23.3028 20.6937 23.285L17.8243 22.2807L21.8569 19.0648C21.9328 19.0244 21.9683 18.9082 21.928 18.8323C21.8118 18.7967 21.7537 18.779 21.6779 18.8193L17.4757 22.1741C17.3999 22.2144 17.3821 22.2726 17.3821 22.2726Z"/>
<path d="M23.9868 21.2412C24.0271 21.3171 24.0094 21.3752 24.0675 21.393L26.4946 22.3893C26.5527 22.407 26.6867 22.3844 26.7222 22.2682C26.74 22.2101 26.6997 22.1342 26.6416 22.1164L24.6033 21.3026L27.1439 20.6811C27.1439 20.6811 27.202 20.6989 27.2198 20.6408L29.882 17.9592C29.8997 17.9011 29.9353 17.7849 29.8772 17.7671C29.8368 17.6912 29.7029 17.7138 29.627 17.7542L27.0229 20.4535L24.0982 21.0846C24.0804 21.1427 24.0046 21.1831 23.9868 21.2412Z"/>
<path d="M29.8444 19.5366C29.8847 19.6125 29.9251 19.6884 29.9832 19.7061L33.3966 20.1777C33.4725 20.1374 33.5484 20.097 33.5661 20.0389C33.5839 19.9808 33.5436 19.9049 33.4274 19.8694L30.0139 19.3978C29.9558 19.38 29.8622 19.4785 29.8444 19.5366Z"/>
<path d="M35.4197 17.3008C35.4197 17.3008 35.402 17.3589 35.4601 17.3767C35.5004 17.4526 35.5585 17.4703 35.6344 17.43L37.7812 16.4339L40.9172 16.5665C40.9753 16.5842 41.0511 16.5439 41.0867 16.4276C41.1044 16.3695 41.006 16.2759 40.9301 16.3162L37.7539 16.1078L37.678 16.1481L36.2721 16.7987L38.0737 15.0616C38.1496 15.0212 38.127 14.8872 38.0689 14.8695C38.0286 14.7936 37.8946 14.8162 37.8769 14.8743L35.4553 17.1845C35.4375 17.2427 35.4375 17.2427 35.4197 17.3008Z"/>
<path d="M42.4789 12.9129L42.4611 12.971C42.5014 13.0469 42.5595 13.0647 42.6176 13.0824L45.8294 13.1746C45.9456 13.2101 46.0215 13.1698 45.9812 13.0939C46.0167 12.9777 45.9586 12.9599 45.8424 12.9244L43.1487 12.7999L45.3085 11.5536C45.3666 11.5714 45.3844 11.5133 45.3844 11.5133L46.223 8.14706C46.2585 8.03081 46.2182 7.95493 46.1601 7.93717C46.0439 7.90164 45.968 7.942 45.9325 8.05824L45.1117 11.3663L42.5725 12.8144C42.4966 12.8548 42.4966 12.8548 42.4789 12.9129Z"/>
<path d="M47.1991 9.5259C47.2394 9.60178 47.2797 9.67767 47.3959 9.71319L49.8121 9.49859C49.8702 9.51635 49.9639 9.41787 49.9816 9.35975C49.9413 9.28386 49.901 9.20798 49.767 9.23057L47.3686 9.38706C47.2927 9.42742 47.2169 9.46778 47.1991 9.5259Z"/>
</mask>
<path d="M109.402 19.5788C105.28 21.4745 100.826 16.6715 96.2763 10.309C104.557 13.4972 110.073 16.5774 109.402 19.5788Z" fill="#36AD3F"/>
<path d="M109.402 19.5788C105.28 21.4745 100.826 16.6715 96.2763 10.309C104.557 13.4972 110.073 16.5774 109.402 19.5788Z" fill="#B78A39"/>
<path d="M110.563 22.338C110.96 28 105.181 30.0847 99.0227 31.9675C103.187 26.0549 107.265 20.4863 110.563 22.338Z" fill="#36AD3F"/>
<path d="M110.563 22.338C110.96 28 105.181 30.0847 99.0227 31.9675C103.187 26.0549 107.265 20.4863 110.563 22.338Z" fill="#B78A39"/>
<path d="M101.636 21.1905C97.0381 22.1514 92.9795 18.435 89.1835 12.6681C96.2386 14.1338 100.902 16.7119 101.636 21.1905Z" fill="#36AD3F"/>
<path d="M101.636 21.1905C97.0381 22.1514 92.9795 18.435 89.1835 12.6681C96.2386 14.1338 100.902 16.7119 101.636 21.1905Z" fill="#B78A39"/>
<path d="M100.859 23.8432C100.337 28.5786 94.2074 29.3086 87.2479 29.4026C92.4099 25.0916 97.3559 21.7364 100.859 23.8432Z" fill="#36AD3F"/>
<path d="M100.859 23.8432C100.337 28.5786 94.2074 29.3086 87.2479 29.4026C92.4099 25.0916 97.3559 21.7364 100.859 23.8432Z" fill="#B78A39"/>
<path d="M92.2617 20.2433C88.3514 21.3752 84.4363 17.2972 80.5159 11.1235C87.1807 13.5982 91.8572 16.4266 92.2617 20.2433Z" fill="#36AD3F"/>
<path d="M92.2617 20.2433C88.3514 21.3752 84.4363 17.2972 80.5159 11.1235C87.1807 13.5982 91.8572 16.4266 92.2617 20.2433Z" fill="#B78A39"/>
<path d="M93.0839 22.7247C90.1333 21.5931 86.5024 23.8471 82.4894 27.5526C88.248 27.0632 92.6587 25.9053 93.0839 22.7247Z" fill="#36AD3F"/>
<path d="M93.0839 22.7247C90.1333 21.5931 86.5024 23.8471 82.4894 27.5526C88.248 27.0632 92.6587 25.9053 93.0839 22.7247Z" fill="#B78A39"/>
<path d="M86.9037 21.6272C83.6448 20.5262 80.1041 22.2443 76.4282 24.7663C82.0514 25.0809 86.4655 24.5575 86.9037 21.6272Z" fill="#36AD3F"/>
<path d="M86.9037 21.6272C83.6448 20.5262 80.1041 22.2443 76.4282 24.7663C82.0514 25.0809 86.4655 24.5575 86.9037 21.6272Z" fill="#B78A39"/>
<path d="M84.1157 19.3654C78.5472 18.3986 76.1462 14.4932 74.6084 9.879C80.8569 12.8623 84.1794 16.0411 84.1157 19.3654Z" fill="#36AD3F"/>
<path d="M84.1157 19.3654C78.5472 18.3986 76.1462 14.4932 74.6084 9.879C80.8569 12.8623 84.1794 16.0411 84.1157 19.3654Z" fill="#B78A39"/>
<path d="M80.2826 19.7111C78.2841 18.1613 74.1331 18.9219 69.1544 20.5076C73.3641 22.017 77.2539 22.4801 80.2826 19.7111Z" fill="#36AD3F"/>
<path d="M80.2826 19.7111C78.2841 18.1613 74.1331 18.9219 69.1544 20.5076C73.3641 22.017 77.2539 22.4801 80.2826 19.7111Z" fill="#B78A39"/>
<path d="M75.1168 15.6977C71.7983 15.4411 69.5251 12.5771 68.3148 7.16371C72.8006 9.16064 75.3643 11.9358 75.1168 15.6977Z" fill="#36AD3F"/>
<path d="M75.1168 15.6977C71.7983 15.4411 69.5251 12.5771 68.3148 7.16371C72.8006 9.16064 75.3643 11.9358 75.1168 15.6977Z" fill="#B78A39"/>
<path d="M73.1189 16.4356C73.0458 14.742 63.8704 15.0686 63.7076 16.1988C67.3978 18.5025 70.613 19.0448 73.1189 16.4356Z" fill="#36AD3F"/>
<path d="M73.1189 16.4356C73.0458 14.742 63.8704 15.0686 63.7076 16.1988C67.3978 18.5025 70.613 19.0448 73.1189 16.4356Z" fill="#B78A39"/>
<path d="M67.7288 12.9356C65.7802 10.9257 62.4748 10.9194 58.4304 12.0287C62.3045 13.8949 65.6085 14.7278 67.7288 12.9356Z" fill="#36AD3F"/>
<path d="M67.7288 12.9356C65.7802 10.9257 62.4748 10.9194 58.4304 12.0287C62.3045 13.8949 65.6085 14.7278 67.7288 12.9356Z" fill="#B78A39"/>
<path d="M63.5137 9.33063C62.3334 7.34 59.6137 6.96396 56.0259 7.48885C58.872 9.73288 61.4966 10.8371 63.5137 9.33063Z" fill="#36AD3F"/>
<path d="M63.5137 9.33063C62.3334 7.34 59.6137 6.96396 56.0259 7.48885C58.872 9.73288 61.4966 10.8371 63.5137 9.33063Z" fill="#B78A39"/>
<path d="M63.3456 8.36517C59.5201 6.86548 58.2475 3.94974 58.0076 0.464029C61.7026 2.57562 63.6369 5.16197 63.3456 8.36517Z" fill="#36AD3F"/>
<path d="M63.3456 8.36517C59.5201 6.86548 58.2475 3.94974 58.0076 0.464029C61.7026 2.57562 63.6369 5.16197 63.3456 8.36517Z" fill="#B78A39"/>
<path d="M66.8048 9.91331C64.3756 9.44845 63.9437 5.9579 64.3492 1.25804C66.6388 5.00682 68.1343 8.23576 66.8048 9.91331Z" fill="#36AD3F"/>
<path d="M66.8048 9.91331C64.3756 9.44845 63.9437 5.9579 64.3492 1.25804C66.6388 5.00682 68.1343 8.23576 66.8048 9.91331Z" fill="#B78A39"/>
<path d="M112.009 20.1174L111.861 20.8776C110.606 21.1344 107.25 21.8893 105.976 22.088C103.371 22.503 100.771 22.726 98.1583 22.6986C95.5049 22.7472 92.8967 22.5278 90.3335 22.0403C87.7301 21.6288 85.1895 21.0073 82.694 20.1178L81.7788 19.8256C81.4931 19.7223 81.1896 19.5609 80.9039 19.4576L80.4084 19.2913C80.2567 19.2106 80.1227 19.188 79.971 19.1073L79.0961 18.7392L78.2034 18.313L77.3285 17.945L75.5433 17.0926C73.2672 15.8818 71.0718 14.5193 68.9571 13.005C67.8997 12.2478 66.9005 11.4729 65.8834 10.6399C65.3749 10.2234 64.9245 9.78909 64.4741 9.35481C63.9655 8.93829 63.5151 8.50401 63.0469 8.01161C63.0469 8.01161 63.0292 7.95349 63.0695 7.8776C63.0695 7.8776 63.1276 7.85984 63.1454 7.91796C63.4488 8.0794 63.6942 8.2586 63.9574 8.49592C64.2027 8.67511 64.4078 8.9302 64.7113 9.09163C64.9566 9.27083 65.202 9.45003 65.4651 9.68735C65.7105 9.86655 65.9559 10.0457 66.2013 10.2249C66.4644 10.4623 66.7098 10.6415 66.9552 10.8207L67.3523 11.0806L67.7671 11.3986C68.0125 11.5778 68.2579 11.757 68.5614 11.9184L68.9004 12.1961L69.3153 12.5142C69.6187 12.6756 69.8641 12.8548 70.1095 13.034L70.9037 13.5538C71.2072 13.7153 71.4525 13.8945 71.756 14.0559L72.5502 14.5757L72.7778 14.6968C72.8537 14.7372 72.8715 14.7953 72.9473 14.8356L73.3848 15.0197C73.6302 15.1989 73.9336 15.3603 74.179 15.5395L75.0717 15.9657C75.1653 16.0642 75.317 16.1449 75.4688 16.2256L75.9062 16.4096L76.7408 16.8536L77.6334 17.2798L78.0709 17.4638L78.5261 17.706L80.2758 18.4421C80.4276 18.5228 80.5615 18.5454 80.7133 18.6261L81.1507 18.8102C81.4364 18.9135 81.7802 18.999 82.0659 19.1023L82.9989 19.4526C85.4007 20.2436 87.8832 20.8828 90.4286 21.3122C95.5193 22.1708 100.745 22.2255 105.821 21.3727C106.838 21.2141 110.697 20.427 112.009 20.1174Z" fill="#36AD3F"/>
<path d="M112.009 20.1174L111.861 20.8776C110.606 21.1344 107.25 21.8893 105.976 22.088C103.371 22.503 100.771 22.726 98.1583 22.6986C95.5049 22.7472 92.8967 22.5278 90.3335 22.0403C87.7301 21.6288 85.1895 21.0073 82.694 20.1178L81.7788 19.8256C81.4931 19.7223 81.1896 19.5609 80.9039 19.4576L80.4084 19.2913C80.2567 19.2106 80.1227 19.188 79.971 19.1073L79.0961 18.7392L78.2034 18.313L77.3285 17.945L75.5433 17.0926C73.2672 15.8818 71.0718 14.5193 68.9571 13.005C67.8997 12.2478 66.9005 11.4729 65.8834 10.6399C65.3749 10.2234 64.9245 9.78909 64.4741 9.35481C63.9655 8.93829 63.5151 8.50401 63.0469 8.01161C63.0469 8.01161 63.0292 7.95349 63.0695 7.8776C63.0695 7.8776 63.1276 7.85984 63.1454 7.91796C63.4488 8.0794 63.6942 8.2586 63.9574 8.49592C64.2027 8.67511 64.4078 8.9302 64.7113 9.09163C64.9566 9.27083 65.202 9.45003 65.4651 9.68735C65.7105 9.86655 65.9559 10.0457 66.2013 10.2249C66.4644 10.4623 66.7098 10.6415 66.9552 10.8207L67.3523 11.0806L67.7671 11.3986C68.0125 11.5778 68.2579 11.757 68.5614 11.9184L68.9004 12.1961L69.3153 12.5142C69.6187 12.6756 69.8641 12.8548 70.1095 13.034L70.9037 13.5538C71.2072 13.7153 71.4525 13.8945 71.756 14.0559L72.5502 14.5757L72.7778 14.6968C72.8537 14.7372 72.8715 14.7953 72.9473 14.8356L73.3848 15.0197C73.6302 15.1989 73.9336 15.3603 74.179 15.5395L75.0717 15.9657C75.1653 16.0642 75.317 16.1449 75.4688 16.2256L75.9062 16.4096L76.7408 16.8536L77.6334 17.2798L78.0709 17.4638L78.5261 17.706L80.2758 18.4421C80.4276 18.5228 80.5615 18.5454 80.7133 18.6261L81.1507 18.8102C81.4364 18.9135 81.7802 18.999 82.0659 19.1023L82.9989 19.4526C85.4007 20.2436 87.8832 20.8828 90.4286 21.3122C95.5193 22.1708 100.745 22.2255 105.821 21.3727C106.838 21.2141 110.697 20.427 112.009 20.1174Z" fill="#B78A39"/>
<path d="M112.228 20.3036L112.246 20.3617L110.102 23.1146C110.062 23.1905 109.928 23.1679 109.91 23.1097C109.834 23.0694 109.816 23.0113 109.857 22.9354L111.647 20.4812C110.902 20.3279 109.018 19.5692 108.96 19.5869C108.884 19.5466 108.848 19.4303 108.889 19.3544C108.871 19.2963 108.987 19.2608 109.063 19.3012C109.063 19.3012 111.366 20.1858 112.175 20.1292C112.175 20.1292 112.193 20.1874 112.211 20.2455C112.211 20.2455 112.211 20.2455 112.228 20.3036Z" fill="#36AD3F"/>
<path d="M112.228 20.3036L112.246 20.3617L110.102 23.1146C110.062 23.1905 109.928 23.1679 109.91 23.1097C109.834 23.0694 109.816 23.0113 109.857 22.9354L111.647 20.4812C110.902 20.3279 109.018 19.5692 108.96 19.5869C108.884 19.5466 108.848 19.4303 108.889 19.3544C108.871 19.2963 108.987 19.2608 109.063 19.3012C109.063 19.3012 111.366 20.1858 112.175 20.1292C112.175 20.1292 112.193 20.1874 112.211 20.2455C112.211 20.2455 112.211 20.2455 112.228 20.3036Z" fill="#B78A39"/>
<path d="M106.004 21.7618C106.021 21.8199 105.981 21.8958 105.923 21.9136L100.21 24.4228C100.152 24.4406 100.076 24.4002 100 24.3599C99.9648 24.2436 100.005 24.1677 100.121 24.1322L105.271 21.8587C104.043 21.7894 101.359 21.5296 100.015 20.6691C99.9396 20.6287 99.9218 20.5706 99.9622 20.4947C100.002 20.4189 100.061 20.4011 100.136 20.4415C101.859 21.5037 105.834 21.623 105.892 21.6052C105.968 21.6456 106.044 21.6859 106.062 21.7441C106.062 21.7441 106.062 21.7441 106.004 21.7618Z" fill="#36AD3F"/>
<path d="M106.004 21.7618C106.021 21.8199 105.981 21.8958 105.923 21.9136L100.21 24.4228C100.152 24.4406 100.076 24.4002 100 24.3599C99.9648 24.2436 100.005 24.1677 100.121 24.1322L105.271 21.8587C104.043 21.7894 101.359 21.5296 100.015 20.6691C99.9396 20.6287 99.9218 20.5706 99.9622 20.4947C100.002 20.4189 100.061 20.4011 100.136 20.4415C101.859 21.5037 105.834 21.623 105.892 21.6052C105.968 21.6456 106.044 21.6859 106.062 21.7441C106.062 21.7441 106.062 21.7441 106.004 21.7618Z" fill="#B78A39"/>
<path d="M94.9786 22.2726L94.9964 22.3307C94.9561 22.4066 94.898 22.4243 94.898 22.4243L91.814 23.5579C91.6978 23.5934 91.6219 23.553 91.6041 23.4949C91.5864 23.4368 91.6089 23.3028 91.667 23.285L94.5364 22.2807L90.5038 19.0648C90.4279 19.0244 90.3924 18.9082 90.4327 18.8323C90.5489 18.7968 90.607 18.779 90.6829 18.8194L94.885 22.1741C94.9609 22.2144 94.9786 22.2726 94.9786 22.2726Z" fill="#36AD3F"/>
<path d="M94.9786 22.2726L94.9964 22.3307C94.9561 22.4066 94.898 22.4243 94.898 22.4243L91.814 23.5579C91.6978 23.5934 91.6219 23.553 91.6041 23.4949C91.5864 23.4368 91.6089 23.3028 91.667 23.285L94.5364 22.2807L90.5038 19.0648C90.4279 19.0244 90.3924 18.9082 90.4327 18.8323C90.5489 18.7968 90.607 18.779 90.6829 18.8194L94.885 22.1741C94.9609 22.2144 94.9786 22.2726 94.9786 22.2726Z" fill="#B78A39"/>
<path d="M88.3739 21.2412C88.3336 21.3171 88.3514 21.3752 88.2933 21.393L85.8661 22.3893C85.808 22.407 85.674 22.3844 85.6385 22.2682C85.6207 22.2101 85.6611 22.1342 85.7192 22.1164L87.7574 21.3026L85.2168 20.6812C85.2168 20.6812 85.1587 20.6989 85.141 20.6408L82.4788 17.9592C82.461 17.9011 82.4255 17.7849 82.4836 17.7671C82.5239 17.6912 82.6579 17.7138 82.7337 17.7542L85.3378 20.4535L88.2625 21.0846C88.2803 21.1428 88.3562 21.1831 88.3739 21.2412Z" fill="#36AD3F"/>
<path d="M88.3739 21.2412C88.3336 21.3171 88.3514 21.3752 88.2933 21.393L85.8661 22.3893C85.808 22.407 85.674 22.3844 85.6385 22.2682C85.6207 22.2101 85.6611 22.1342 85.7192 22.1164L87.7574 21.3026L85.2168 20.6812C85.2168 20.6812 85.1587 20.6989 85.141 20.6408L82.4788 17.9592C82.461 17.9011 82.4255 17.7849 82.4836 17.7671C82.5239 17.6912 82.6579 17.7138 82.7337 17.7542L85.3378 20.4535L88.2625 21.0846C88.2803 21.1428 88.3562 21.1831 88.3739 21.2412Z" fill="#B78A39"/>
<path d="M82.5163 19.5366C82.476 19.6125 82.4357 19.6884 82.3776 19.7061L78.9641 20.1777C78.8882 20.1374 78.8124 20.097 78.7946 20.0389C78.7768 19.9808 78.8172 19.9049 78.9334 19.8694L82.3468 19.3978C82.4049 19.38 82.4985 19.4785 82.5163 19.5366Z" fill="#36AD3F"/>
<path d="M82.5163 19.5366C82.476 19.6125 82.4357 19.6884 82.3776 19.7061L78.9641 20.1777C78.8882 20.1374 78.8124 20.097 78.7946 20.0389C78.7768 19.9808 78.8172 19.9049 78.9334 19.8694L82.3468 19.3978C82.4049 19.38 82.4985 19.4785 82.5163 19.5366Z" fill="#B78A39"/>
<path d="M76.941 17.3008C76.941 17.3008 76.9588 17.3589 76.9007 17.3767C76.8603 17.4526 76.8022 17.4703 76.7264 17.43L74.5795 16.4339L71.4436 16.5665C71.3855 16.5842 71.3096 16.5439 71.2741 16.4276C71.2563 16.3695 71.3547 16.2759 71.4306 16.3162L74.6069 16.1078L74.6827 16.1481L76.0887 16.7987L74.287 15.0616C74.2111 15.0212 74.2337 14.8872 74.2918 14.8695C74.3321 14.7936 74.4661 14.8162 74.4839 14.8743L76.9055 17.1846C76.9232 17.2427 76.9232 17.2427 76.941 17.3008Z" fill="#36AD3F"/>
<path d="M76.941 17.3008C76.941 17.3008 76.9588 17.3589 76.9007 17.3767C76.8603 17.4526 76.8022 17.4703 76.7264 17.43L74.5795 16.4339L71.4436 16.5665C71.3855 16.5842 71.3096 16.5439 71.2741 16.4276C71.2563 16.3695 71.3547 16.2759 71.4306 16.3162L74.6069 16.1078L74.6827 16.1481L76.0887 16.7987L74.287 15.0616C74.2111 15.0212 74.2337 14.8872 74.2918 14.8695C74.3321 14.7936 74.4661 14.8162 74.4839 14.8743L76.9055 17.1846C76.9232 17.2427 76.9232 17.2427 76.941 17.3008Z" fill="#B78A39"/>
<path d="M69.8819 12.9129L69.8996 12.971C69.8593 13.0469 69.8012 13.0647 69.7431 13.0824L66.5313 13.1746C66.4151 13.2102 66.3392 13.1698 66.3796 13.0939C66.344 12.9777 66.4021 12.9599 66.5183 12.9244L69.212 12.7999L67.0522 11.5536C66.9941 11.5714 66.9763 11.5133 66.9763 11.5133L66.1378 8.14706C66.1022 8.03082 66.1425 7.95494 66.2006 7.93717C66.3168 7.90165 66.3927 7.94201 66.4282 8.05825L67.249 11.3663L69.7882 12.8144C69.8641 12.8548 69.8641 12.8548 69.8819 12.9129Z" fill="#36AD3F"/>
<path d="M69.8819 12.9129L69.8996 12.971C69.8593 13.0469 69.8012 13.0647 69.7431 13.0824L66.5313 13.1746C66.4151 13.2102 66.3392 13.1698 66.3796 13.0939C66.344 12.9777 66.4021 12.9599 66.5183 12.9244L69.212 12.7999L67.0522 11.5536C66.9941 11.5714 66.9763 11.5133 66.9763 11.5133L66.1378 8.14706C66.1022 8.03082 66.1425 7.95494 66.2006 7.93717C66.3168 7.90165 66.3927 7.94201 66.4282 8.05825L67.249 11.3663L69.7882 12.8144C69.8641 12.8548 69.8641 12.8548 69.8819 12.9129Z" fill="#B78A39"/>
<path d="M65.1617 9.52591C65.1213 9.60179 65.081 9.67768 64.9648 9.7132L62.5486 9.49859C62.4905 9.51636 62.3969 9.41788 62.3791 9.35975C62.4194 9.28387 62.4598 9.20799 62.5937 9.23058L64.9922 9.38707C65.068 9.42743 65.1439 9.46779 65.1617 9.52591Z" fill="#36AD3F"/>
<path d="M65.1617 9.52591C65.1213 9.60179 65.081 9.67768 64.9648 9.7132L62.5486 9.49859C62.4905 9.51636 62.3969 9.41788 62.3791 9.35975C62.4194 9.28387 62.4598 9.20799 62.5937 9.23058L64.9922 9.38707C65.068 9.42743 65.1439 9.46779 65.1617 9.52591Z" fill="#B78A39"/>
<path d="M2.95863 19.5788C7.08024 21.4745 11.5345 16.6715 16.0844 10.309C7.80384 13.4972 2.28802 16.5774 2.95863 19.5788Z" fill="#36AD3F"/>
<path d="M2.95863 19.5788C7.08024 21.4745 11.5345 16.6715 16.0844 10.309C7.80384 13.4972 2.28802 16.5774 2.95863 19.5788Z" fill="#B78A39"/>
<path d="M1.79743 22.338C1.40048 28 7.1796 30.0847 13.3381 31.9675C9.17396 26.0549 5.0953 20.4863 1.79743 22.338Z" fill="#36AD3F"/>
<path d="M1.79743 22.338C1.40048 28 7.1796 30.0847 13.3381 31.9675C9.17396 26.0549 5.0953 20.4863 1.79743 22.338Z" fill="#B78A39"/>
<path d="M10.7247 21.1905C15.3227 22.1514 19.3813 18.435 23.1773 12.6681C16.1222 14.1337 11.4587 16.7119 10.7247 21.1905Z" fill="#36AD3F"/>
<path d="M10.7247 21.1905C15.3227 22.1514 19.3813 18.435 23.1773 12.6681C16.1222 14.1337 11.4587 16.7119 10.7247 21.1905Z" fill="#B78A39"/>
<path d="M11.5019 23.8432C12.0236 28.5786 18.1533 29.3086 25.1128 29.4026C19.9508 25.0916 15.0048 21.7364 11.5019 23.8432Z" fill="#36AD3F"/>
<path d="M11.5019 23.8432C12.0236 28.5786 18.1533 29.3086 25.1128 29.4026C19.9508 25.0916 15.0048 21.7364 11.5019 23.8432Z" fill="#B78A39"/>
<path d="M20.099 20.2433C24.0094 21.3752 27.9244 17.2972 31.8448 11.1235C25.18 13.5982 20.5035 16.4266 20.099 20.2433Z" fill="#36AD3F"/>
<path d="M20.099 20.2433C24.0094 21.3752 27.9244 17.2972 31.8448 11.1235C25.18 13.5982 20.5035 16.4266 20.099 20.2433Z" fill="#B78A39"/>
<path d="M19.2768 22.7247C22.2275 21.5931 25.8583 23.8471 29.8713 27.5526C24.1127 27.0632 19.702 25.9053 19.2768 22.7247Z" fill="#36AD3F"/>
<path d="M19.2768 22.7247C22.2275 21.5931 25.8583 23.8471 29.8713 27.5526C24.1127 27.0632 19.702 25.9053 19.2768 22.7247Z" fill="#B78A39"/>
<path d="M25.4571 21.6272C28.716 20.5262 32.2566 22.2442 35.9326 24.7663C30.3094 25.0808 25.8953 24.5575 25.4571 21.6272Z" fill="#36AD3F"/>
<path d="M25.4571 21.6272C28.716 20.5262 32.2566 22.2442 35.9326 24.7663C30.3094 25.0808 25.8953 24.5575 25.4571 21.6272Z" fill="#B78A39"/>
<path d="M28.245 19.3654C33.8135 18.3986 36.2146 14.4932 37.7523 9.87899C31.5038 12.8623 28.1813 16.0411 28.245 19.3654Z" fill="#36AD3F"/>
<path d="M28.245 19.3654C33.8135 18.3986 36.2146 14.4932 37.7523 9.87899C31.5038 12.8623 28.1813 16.0411 28.245 19.3654Z" fill="#B78A39"/>
<path d="M32.0781 19.7111C34.0767 18.1612 38.2276 18.9219 43.2064 20.5076C38.9967 22.0169 35.1068 22.4801 32.0781 19.7111Z" fill="#36AD3F"/>
<path d="M32.0781 19.7111C34.0767 18.1612 38.2276 18.9219 43.2064 20.5076C38.9967 22.0169 35.1068 22.4801 32.0781 19.7111Z" fill="#B78A39"/>
<path d="M37.244 15.6977C40.5624 15.4411 42.8357 12.5771 44.046 7.16371C39.5602 9.16063 36.9964 11.9358 37.244 15.6977Z" fill="#36AD3F"/>
<path d="M37.244 15.6977C40.5624 15.4411 42.8357 12.5771 44.046 7.16371C39.5602 9.16063 36.9964 11.9358 37.244 15.6977Z" fill="#B78A39"/>
<path d="M39.2419 16.4356C39.315 14.742 48.4904 15.0686 48.6531 16.1987C44.9629 18.5025 41.7477 19.0448 39.2419 16.4356Z" fill="#36AD3F"/>
<path d="M39.2419 16.4356C39.315 14.742 48.4904 15.0686 48.6531 16.1987C44.9629 18.5025 41.7477 19.0448 39.2419 16.4356Z" fill="#B78A39"/>
<path d="M44.6319 12.9356C46.5805 10.9257 49.886 10.9194 53.9303 12.0287C50.0563 13.8949 46.7522 14.7278 44.6319 12.9356Z" fill="#36AD3F"/>
<path d="M44.6319 12.9356C46.5805 10.9257 49.886 10.9194 53.9303 12.0287C50.0563 13.8949 46.7522 14.7278 44.6319 12.9356Z" fill="#B78A39"/>
<path d="M48.847 9.33062C50.0274 7.33999 52.747 6.96395 56.3348 7.48884C53.4887 9.73287 50.8641 10.8371 48.847 9.33062Z" fill="#36AD3F"/>
<path d="M48.847 9.33062C50.0274 7.33999 52.747 6.96395 56.3348 7.48884C53.4887 9.73287 50.8641 10.8371 48.847 9.33062Z" fill="#B78A39"/>
<path d="M49.0151 8.36516C52.8407 6.86548 54.1133 3.94974 54.3531 0.464022C50.6581 2.57561 48.7239 5.16196 49.0151 8.36516Z" fill="#36AD3F"/>
<path d="M49.0151 8.36516C52.8407 6.86548 54.1133 3.94974 54.3531 0.464022C50.6581 2.57561 48.7239 5.16196 49.0151 8.36516Z" fill="#B78A39"/>
<path d="M45.5559 9.9133C47.9851 9.44844 48.417 5.95789 48.0115 1.25804C45.7219 5.00681 44.2265 8.23576 45.5559 9.9133Z" fill="#36AD3F"/>
<path d="M45.5559 9.9133C47.9851 9.44844 48.417 5.95789 48.0115 1.25804C45.7219 5.00681 44.2265 8.23576 45.5559 9.9133Z" fill="#B78A39"/>
<path d="M0.351815 20.1174L0.499594 20.8776C1.75521 21.1344 5.11107 21.8893 6.38445 22.088C8.98931 22.503 11.5894 22.726 14.2024 22.6986C16.8558 22.7472 19.4641 22.5278 22.0272 22.0403C24.6307 21.6287 27.1713 21.0073 29.6667 20.1178L30.5819 19.8256C30.8676 19.7223 31.1711 19.5609 31.4568 19.4576L31.9523 19.2913C32.1041 19.2106 32.238 19.188 32.3898 19.1073L33.2647 18.7392L34.1573 18.313L35.0322 17.945L36.8175 17.0926C39.0935 15.8818 41.2889 14.5193 43.4037 13.005C44.461 12.2478 45.4603 11.4729 46.4773 10.6399C46.9858 10.2234 47.4363 9.78908 47.8867 9.3548C48.3952 8.93828 48.8456 8.50401 49.3138 8.0116C49.3138 8.0116 49.3316 7.95348 49.2912 7.8776C49.2912 7.8776 49.2331 7.85983 49.2154 7.91796C48.9119 8.07939 48.6665 8.25859 48.4034 8.49591C48.158 8.67511 47.953 8.93019 47.6495 9.09162C47.4041 9.27082 47.1587 9.45002 46.8956 9.68734C46.6502 9.86654 46.4049 10.0457 46.1595 10.2249C45.8963 10.4623 45.651 10.6415 45.4056 10.8207L45.0085 11.0806L44.5936 11.3986C44.3482 11.5778 44.1028 11.757 43.7994 11.9184L43.4604 12.1961L43.0455 12.5142C42.742 12.6756 42.4966 12.8548 42.2513 13.034L41.457 13.5538C41.1536 13.7153 40.9082 13.8945 40.6047 14.0559L39.8105 14.5757L39.5829 14.6968C39.507 14.7372 39.4893 14.7953 39.4134 14.8356L38.976 15.0197C38.7306 15.1989 38.4271 15.3603 38.1817 15.5395L37.2891 15.9657C37.1954 16.0642 37.0437 16.1449 36.892 16.2256L36.4545 16.4096L35.62 16.8536L34.7273 17.2798L34.2899 17.4638L33.8347 17.706L32.0849 18.4421C31.9332 18.5228 31.7992 18.5454 31.6475 18.6261L31.21 18.8101C30.9243 18.9135 30.5805 18.999 30.2948 19.1023L29.3619 19.4526C26.96 20.2436 24.4775 20.8828 21.9322 21.3122C16.8414 22.1708 11.6153 22.2255 6.53958 21.3727C5.52274 21.2141 1.66372 20.427 0.351815 20.1174Z" fill="#36AD3F"/>
<path d="M0.351815 20.1174L0.499594 20.8776C1.75521 21.1344 5.11107 21.8893 6.38445 22.088C8.98931 22.503 11.5894 22.726 14.2024 22.6986C16.8558 22.7472 19.4641 22.5278 22.0272 22.0403C24.6307 21.6287 27.1713 21.0073 29.6667 20.1178L30.5819 19.8256C30.8676 19.7223 31.1711 19.5609 31.4568 19.4576L31.9523 19.2913C32.1041 19.2106 32.238 19.188 32.3898 19.1073L33.2647 18.7392L34.1573 18.313L35.0322 17.945L36.8175 17.0926C39.0935 15.8818 41.2889 14.5193 43.4037 13.005C44.461 12.2478 45.4603 11.4729 46.4773 10.6399C46.9858 10.2234 47.4363 9.78908 47.8867 9.3548C48.3952 8.93828 48.8456 8.50401 49.3138 8.0116C49.3138 8.0116 49.3316 7.95348 49.2912 7.8776C49.2912 7.8776 49.2331 7.85983 49.2154 7.91796C48.9119 8.07939 48.6665 8.25859 48.4034 8.49591C48.158 8.67511 47.953 8.93019 47.6495 9.09162C47.4041 9.27082 47.1587 9.45002 46.8956 9.68734C46.6502 9.86654 46.4049 10.0457 46.1595 10.2249C45.8963 10.4623 45.651 10.6415 45.4056 10.8207L45.0085 11.0806L44.5936 11.3986C44.3482 11.5778 44.1028 11.757 43.7994 11.9184L43.4604 12.1961L43.0455 12.5142C42.742 12.6756 42.4966 12.8548 42.2513 13.034L41.457 13.5538C41.1536 13.7153 40.9082 13.8945 40.6047 14.0559L39.8105 14.5757L39.5829 14.6968C39.507 14.7372 39.4893 14.7953 39.4134 14.8356L38.976 15.0197C38.7306 15.1989 38.4271 15.3603 38.1817 15.5395L37.2891 15.9657C37.1954 16.0642 37.0437 16.1449 36.892 16.2256L36.4545 16.4096L35.62 16.8536L34.7273 17.2798L34.2899 17.4638L33.8347 17.706L32.0849 18.4421C31.9332 18.5228 31.7992 18.5454 31.6475 18.6261L31.21 18.8101C30.9243 18.9135 30.5805 18.999 30.2948 19.1023L29.3619 19.4526C26.96 20.2436 24.4775 20.8828 21.9322 21.3122C16.8414 22.1708 11.6153 22.2255 6.53958 21.3727C5.52274 21.2141 1.66372 20.427 0.351815 20.1174Z" fill="#B78A39"/>
<path d="M0.13234 20.3036L0.114571 20.3617L2.25882 23.1146C2.29914 23.1905 2.43311 23.1679 2.45088 23.1097C2.52675 23.0694 2.54452 23.0113 2.50419 22.9354L0.713327 20.4812C1.45903 20.3279 3.34276 19.5692 3.40085 19.5869C3.47672 19.5466 3.51226 19.4303 3.47193 19.3544C3.4897 19.2963 3.3735 19.2608 3.29764 19.3011C3.29764 19.3011 0.99424 20.1858 0.185649 20.1292C0.185649 20.1292 0.167879 20.1874 0.15011 20.2455C0.15011 20.2455 0.15011 20.2455 0.13234 20.3036Z" fill="#36AD3F"/>
<path d="M0.13234 20.3036L0.114571 20.3617L2.25882 23.1146C2.29914 23.1905 2.43311 23.1679 2.45088 23.1097C2.52675 23.0694 2.54452 23.0113 2.50419 22.9354L0.713327 20.4812C1.45903 20.3279 3.34276 19.5692 3.40085 19.5869C3.47672 19.5466 3.51226 19.4303 3.47193 19.3544C3.4897 19.2963 3.3735 19.2608 3.29764 19.3011C3.29764 19.3011 0.99424 20.1858 0.185649 20.1292C0.185649 20.1292 0.167879 20.1874 0.15011 20.2455C0.15011 20.2455 0.15011 20.2455 0.13234 20.3036Z" fill="#B78A39"/>
<path d="M6.3571 21.7618C6.33933 21.8199 6.37966 21.8958 6.43776 21.9136L12.1506 24.4228C12.2087 24.4406 12.2846 24.4002 12.3604 24.3599C12.396 24.2436 12.3556 24.1677 12.2394 24.1322L7.08982 21.8587C8.31809 21.7894 11.0022 21.5296 12.3453 20.6691C12.4212 20.6287 12.4389 20.5706 12.3986 20.4947C12.3583 20.4188 12.3002 20.4011 12.2243 20.4414C10.5019 21.5037 6.52661 21.623 6.46851 21.6052C6.39264 21.6456 6.31677 21.6859 6.299 21.7441C6.299 21.7441 6.299 21.7441 6.3571 21.7618Z" fill="#36AD3F"/>
<path d="M6.3571 21.7618C6.33933 21.8199 6.37966 21.8958 6.43776 21.9136L12.1506 24.4228C12.2087 24.4406 12.2846 24.4002 12.3604 24.3599C12.396 24.2436 12.3556 24.1677 12.2394 24.1322L7.08982 21.8587C8.31809 21.7894 11.0022 21.5296 12.3453 20.6691C12.4212 20.6287 12.4389 20.5706 12.3986 20.4947C12.3583 20.4188 12.3002 20.4011 12.2243 20.4414C10.5019 21.5037 6.52661 21.623 6.46851 21.6052C6.39264 21.6456 6.31677 21.6859 6.299 21.7441C6.299 21.7441 6.299 21.7441 6.3571 21.7618Z" fill="#B78A39"/>
<path d="M17.3821 22.2726L17.3643 22.3307C17.4047 22.4066 17.4628 22.4243 17.4628 22.4243L20.5468 23.5579C20.663 23.5934 20.7389 23.553 20.7566 23.4949C20.7744 23.4368 20.7518 23.3028 20.6937 23.285L17.8243 22.2807L21.8569 19.0648C21.9328 19.0244 21.9683 18.9082 21.928 18.8323C21.8118 18.7967 21.7537 18.779 21.6779 18.8193L17.4757 22.1741C17.3999 22.2144 17.3821 22.2726 17.3821 22.2726Z" fill="#36AD3F"/>
<path d="M17.3821 22.2726L17.3643 22.3307C17.4047 22.4066 17.4628 22.4243 17.4628 22.4243L20.5468 23.5579C20.663 23.5934 20.7389 23.553 20.7566 23.4949C20.7744 23.4368 20.7518 23.3028 20.6937 23.285L17.8243 22.2807L21.8569 19.0648C21.9328 19.0244 21.9683 18.9082 21.928 18.8323C21.8118 18.7967 21.7537 18.779 21.6779 18.8193L17.4757 22.1741C17.3999 22.2144 17.3821 22.2726 17.3821 22.2726Z" fill="#B78A39"/>
<path d="M23.9868 21.2412C24.0271 21.3171 24.0094 21.3752 24.0675 21.393L26.4946 22.3893C26.5527 22.407 26.6867 22.3844 26.7222 22.2682C26.74 22.2101 26.6997 22.1342 26.6416 22.1164L24.6033 21.3026L27.1439 20.6811C27.1439 20.6811 27.202 20.6989 27.2198 20.6408L29.882 17.9592C29.8997 17.9011 29.9353 17.7849 29.8772 17.7671C29.8368 17.6912 29.7029 17.7138 29.627 17.7542L27.0229 20.4535L24.0982 21.0846C24.0804 21.1427 24.0046 21.1831 23.9868 21.2412Z" fill="#36AD3F"/>
<path d="M23.9868 21.2412C24.0271 21.3171 24.0094 21.3752 24.0675 21.393L26.4946 22.3893C26.5527 22.407 26.6867 22.3844 26.7222 22.2682C26.74 22.2101 26.6997 22.1342 26.6416 22.1164L24.6033 21.3026L27.1439 20.6811C27.1439 20.6811 27.202 20.6989 27.2198 20.6408L29.882 17.9592C29.8997 17.9011 29.9353 17.7849 29.8772 17.7671C29.8368 17.6912 29.7029 17.7138 29.627 17.7542L27.0229 20.4535L24.0982 21.0846C24.0804 21.1427 24.0046 21.1831 23.9868 21.2412Z" fill="#B78A39"/>
<path d="M29.8444 19.5366C29.8847 19.6125 29.9251 19.6884 29.9832 19.7061L33.3966 20.1777C33.4725 20.1374 33.5484 20.097 33.5661 20.0389C33.5839 19.9808 33.5436 19.9049 33.4274 19.8694L30.0139 19.3978C29.9558 19.38 29.8622 19.4785 29.8444 19.5366Z" fill="#36AD3F"/>
<path d="M29.8444 19.5366C29.8847 19.6125 29.9251 19.6884 29.9832 19.7061L33.3966 20.1777C33.4725 20.1374 33.5484 20.097 33.5661 20.0389C33.5839 19.9808 33.5436 19.9049 33.4274 19.8694L30.0139 19.3978C29.9558 19.38 29.8622 19.4785 29.8444 19.5366Z" fill="#B78A39"/>
<path d="M35.4197 17.3008C35.4197 17.3008 35.402 17.3589 35.4601 17.3767C35.5004 17.4526 35.5585 17.4703 35.6344 17.43L37.7812 16.4339L40.9172 16.5665C40.9753 16.5842 41.0511 16.5439 41.0867 16.4276C41.1044 16.3695 41.006 16.2759 40.9301 16.3162L37.7539 16.1078L37.678 16.1481L36.2721 16.7987L38.0737 15.0616C38.1496 15.0212 38.127 14.8872 38.0689 14.8695C38.0286 14.7936 37.8946 14.8162 37.8769 14.8743L35.4553 17.1845C35.4375 17.2427 35.4375 17.2427 35.4197 17.3008Z" fill="#36AD3F"/>
<path d="M35.4197 17.3008C35.4197 17.3008 35.402 17.3589 35.4601 17.3767C35.5004 17.4526 35.5585 17.4703 35.6344 17.43L37.7812 16.4339L40.9172 16.5665C40.9753 16.5842 41.0511 16.5439 41.0867 16.4276C41.1044 16.3695 41.006 16.2759 40.9301 16.3162L37.7539 16.1078L37.678 16.1481L36.2721 16.7987L38.0737 15.0616C38.1496 15.0212 38.127 14.8872 38.0689 14.8695C38.0286 14.7936 37.8946 14.8162 37.8769 14.8743L35.4553 17.1845C35.4375 17.2427 35.4375 17.2427 35.4197 17.3008Z" fill="#B78A39"/>
<path d="M42.4789 12.9129L42.4611 12.971C42.5014 13.0469 42.5595 13.0647 42.6176 13.0824L45.8294 13.1746C45.9456 13.2101 46.0215 13.1698 45.9812 13.0939C46.0167 12.9777 45.9586 12.9599 45.8424 12.9244L43.1487 12.7999L45.3085 11.5536C45.3666 11.5714 45.3844 11.5133 45.3844 11.5133L46.223 8.14706C46.2585 8.03081 46.2182 7.95493 46.1601 7.93717C46.0439 7.90164 45.968 7.942 45.9325 8.05824L45.1117 11.3663L42.5725 12.8144C42.4966 12.8548 42.4966 12.8548 42.4789 12.9129Z" fill="#36AD3F"/>
<path d="M42.4789 12.9129L42.4611 12.971C42.5014 13.0469 42.5595 13.0647 42.6176 13.0824L45.8294 13.1746C45.9456 13.2101 46.0215 13.1698 45.9812 13.0939C46.0167 12.9777 45.9586 12.9599 45.8424 12.9244L43.1487 12.7999L45.3085 11.5536C45.3666 11.5714 45.3844 11.5133 45.3844 11.5133L46.223 8.14706C46.2585 8.03081 46.2182 7.95493 46.1601 7.93717C46.0439 7.90164 45.968 7.942 45.9325 8.05824L45.1117 11.3663L42.5725 12.8144C42.4966 12.8548 42.4966 12.8548 42.4789 12.9129Z" fill="#B78A39"/>
<path d="M47.1991 9.5259C47.2394 9.60178 47.2797 9.67767 47.3959 9.71319L49.8121 9.49859C49.8702 9.51635 49.9639 9.41787 49.9816 9.35975C49.9413 9.28386 49.901 9.20798 49.767 9.23057L47.3686 9.38706C47.2927 9.42742 47.2169 9.46778 47.1991 9.5259Z" fill="#36AD3F"/>
<path d="M47.1991 9.5259C47.2394 9.60178 47.2797 9.67767 47.3959 9.71319L49.8121 9.49859C49.8702 9.51635 49.9639 9.41787 49.9816 9.35975C49.9413 9.28386 49.901 9.20798 49.767 9.23057L47.3686 9.38706C47.2927 9.42742 47.2169 9.46778 47.1991 9.5259Z" fill="#B78A39"/>
<path d="M109.402 19.5788C105.28 21.4745 100.826 16.6715 96.2763 10.309C104.557 13.4972 110.073 16.5774 109.402 19.5788Z" stroke="black" stroke-width="0.8" mask="url(#path-1-inside-1_61_108)"/>
<path d="M110.563 22.338C110.96 28 105.181 30.0847 99.0227 31.9675C103.187 26.0549 107.265 20.4863 110.563 22.338Z" stroke="black" stroke-width="0.8" mask="url(#path-1-inside-1_61_108)"/>
<path d="M101.636 21.1905C97.0381 22.1514 92.9795 18.435 89.1835 12.6681C96.2386 14.1338 100.902 16.7119 101.636 21.1905Z" stroke="black" stroke-width="0.8" mask="url(#path-1-inside-1_61_108)"/>
<path d="M100.859 23.8432C100.337 28.5786 94.2074 29.3086 87.2479 29.4026C92.4099 25.0916 97.3559 21.7364 100.859 23.8432Z" stroke="black" stroke-width="0.8" mask="url(#path-1-inside-1_61_108)"/>
<path d="M92.2617 20.2433C88.3514 21.3752 84.4363 17.2972 80.5159 11.1235C87.1807 13.5982 91.8572 16.4266 92.2617 20.2433Z" stroke="black" stroke-width="0.8" mask="url(#path-1-inside-1_61_108)"/>
<path d="M93.0839 22.7247C90.1333 21.5931 86.5024 23.8471 82.4894 27.5526C88.248 27.0632 92.6587 25.9053 93.0839 22.7247Z" stroke="black" stroke-width="0.8" mask="url(#path-1-inside-1_61_108)"/>
<path d="M86.9037 21.6272C83.6448 20.5262 80.1041 22.2443 76.4282 24.7663C82.0514 25.0809 86.4655 24.5575 86.9037 21.6272Z" stroke="black" stroke-width="0.8" mask="url(#path-1-inside-1_61_108)"/>
<path d="M84.1157 19.3654C78.5472 18.3986 76.1462 14.4932 74.6084 9.879C80.8569 12.8623 84.1794 16.0411 84.1157 19.3654Z" stroke="black" stroke-width="0.8" mask="url(#path-1-inside-1_61_108)"/>
<path d="M80.2826 19.7111C78.2841 18.1613 74.1331 18.9219 69.1544 20.5076C73.3641 22.017 77.2539 22.4801 80.2826 19.7111Z" stroke="black" stroke-width="0.8" mask="url(#path-1-inside-1_61_108)"/>
<path d="M75.1168 15.6977C71.7983 15.4411 69.5251 12.5771 68.3148 7.16371C72.8006 9.16064 75.3643 11.9358 75.1168 15.6977Z" stroke="black" stroke-width="0.8" mask="url(#path-1-inside-1_61_108)"/>
<path d="M73.1189 16.4356C73.0458 14.742 63.8704 15.0686 63.7076 16.1988C67.3978 18.5025 70.613 19.0448 73.1189 16.4356Z" stroke="black" stroke-width="0.8" mask="url(#path-1-inside-1_61_108)"/>
<path d="M67.7288 12.9356C65.7802 10.9257 62.4748 10.9194 58.4304 12.0287C62.3045 13.8949 65.6085 14.7278 67.7288 12.9356Z" stroke="black" stroke-width="0.8" mask="url(#path-1-inside-1_61_108)"/>
<path d="M63.5137 9.33063C62.3334 7.34 59.6137 6.96396 56.0259 7.48885C58.872 9.73288 61.4966 10.8371 63.5137 9.33063Z" stroke="black" stroke-width="0.8" mask="url(#path-1-inside-1_61_108)"/>
<path d="M63.3456 8.36517C59.5201 6.86548 58.2475 3.94974 58.0076 0.464029C61.7026 2.57562 63.6369 5.16197 63.3456 8.36517Z" stroke="black" stroke-width="0.8" mask="url(#path-1-inside-1_61_108)"/>
<path d="M66.8048 9.91331C64.3756 9.44845 63.9437 5.9579 64.3492 1.25804C66.6388 5.00682 68.1343 8.23576 66.8048 9.91331Z" stroke="black" stroke-width="0.8" mask="url(#path-1-inside-1_61_108)"/>
<path d="M112.009 20.1174L111.861 20.8776C110.606 21.1344 107.25 21.8893 105.976 22.088C103.371 22.503 100.771 22.726 98.1583 22.6986C95.5049 22.7472 92.8967 22.5278 90.3335 22.0403C87.7301 21.6288 85.1895 21.0073 82.694 20.1178L81.7788 19.8256C81.4931 19.7223 81.1896 19.5609 80.9039 19.4576L80.4084 19.2913C80.2567 19.2106 80.1227 19.188 79.971 19.1073L79.0961 18.7392L78.2034 18.313L77.3285 17.945L75.5433 17.0926C73.2672 15.8818 71.0718 14.5193 68.9571 13.005C67.8997 12.2478 66.9005 11.4729 65.8834 10.6399C65.3749 10.2234 64.9245 9.78909 64.4741 9.35481C63.9655 8.93829 63.5151 8.50401 63.0469 8.01161C63.0469 8.01161 63.0292 7.95349 63.0695 7.8776C63.0695 7.8776 63.1276 7.85984 63.1454 7.91796C63.4488 8.0794 63.6942 8.2586 63.9574 8.49592C64.2027 8.67511 64.4078 8.9302 64.7113 9.09163C64.9566 9.27083 65.202 9.45003 65.4651 9.68735C65.7105 9.86655 65.9559 10.0457 66.2013 10.2249C66.4644 10.4623 66.7098 10.6415 66.9552 10.8207L67.3523 11.0806L67.7671 11.3986C68.0125 11.5778 68.2579 11.757 68.5614 11.9184L68.9004 12.1961L69.3153 12.5142C69.6187 12.6756 69.8641 12.8548 70.1095 13.034L70.9037 13.5538C71.2072 13.7153 71.4525 13.8945 71.756 14.0559L72.5502 14.5757L72.7778 14.6968C72.8537 14.7372 72.8715 14.7953 72.9473 14.8356L73.3848 15.0197C73.6302 15.1989 73.9336 15.3603 74.179 15.5395L75.0717 15.9657C75.1653 16.0642 75.317 16.1449 75.4688 16.2256L75.9062 16.4096L76.7408 16.8536L77.6334 17.2798L78.0709 17.4638L78.5261 17.706L80.2758 18.4421C80.4276 18.5228 80.5615 18.5454 80.7133 18.6261L81.1507 18.8102C81.4364 18.9135 81.7802 18.999 82.0659 19.1023L82.9989 19.4526C85.4007 20.2436 87.8832 20.8828 90.4286 21.3122C95.5193 22.1708 100.745 22.2255 105.821 21.3727C106.838 21.2141 110.697 20.427 112.009 20.1174Z" stroke="black" stroke-width="0.8" mask="url(#path-1-inside-1_61_108)"/>
<path d="M112.228 20.3036L112.246 20.3617L110.102 23.1146C110.062 23.1905 109.928 23.1679 109.91 23.1097C109.834 23.0694 109.816 23.0113 109.857 22.9354L111.647 20.4812C110.902 20.3279 109.018 19.5692 108.96 19.5869C108.884 19.5466 108.848 19.4303 108.889 19.3544C108.871 19.2963 108.987 19.2608 109.063 19.3012C109.063 19.3012 111.366 20.1858 112.175 20.1292C112.175 20.1292 112.193 20.1874 112.211 20.2455C112.211 20.2455 112.211 20.2455 112.228 20.3036Z" stroke="black" stroke-width="0.8" mask="url(#path-1-inside-1_61_108)"/>
<path d="M106.004 21.7618C106.021 21.8199 105.981 21.8958 105.923 21.9136L100.21 24.4228C100.152 24.4406 100.076 24.4002 100 24.3599C99.9648 24.2436 100.005 24.1677 100.121 24.1322L105.271 21.8587C104.043 21.7894 101.359 21.5296 100.015 20.6691C99.9396 20.6287 99.9218 20.5706 99.9622 20.4947C100.002 20.4189 100.061 20.4011 100.136 20.4415C101.859 21.5037 105.834 21.623 105.892 21.6052C105.968 21.6456 106.044 21.6859 106.062 21.7441C106.062 21.7441 106.062 21.7441 106.004 21.7618Z" stroke="black" stroke-width="0.8" mask="url(#path-1-inside-1_61_108)"/>
<path d="M94.9786 22.2726L94.9964 22.3307C94.9561 22.4066 94.898 22.4243 94.898 22.4243L91.814 23.5579C91.6978 23.5934 91.6219 23.553 91.6041 23.4949C91.5864 23.4368 91.6089 23.3028 91.667 23.285L94.5364 22.2807L90.5038 19.0648C90.4279 19.0244 90.3924 18.9082 90.4327 18.8323C90.5489 18.7968 90.607 18.779 90.6829 18.8194L94.885 22.1741C94.9609 22.2144 94.9786 22.2726 94.9786 22.2726Z" stroke="black" stroke-width="0.8" mask="url(#path-1-inside-1_61_108)"/>
<path d="M88.3739 21.2412C88.3336 21.3171 88.3514 21.3752 88.2933 21.393L85.8661 22.3893C85.808 22.407 85.674 22.3844 85.6385 22.2682C85.6207 22.2101 85.6611 22.1342 85.7192 22.1164L87.7574 21.3026L85.2168 20.6812C85.2168 20.6812 85.1587 20.6989 85.141 20.6408L82.4788 17.9592C82.461 17.9011 82.4255 17.7849 82.4836 17.7671C82.5239 17.6912 82.6579 17.7138 82.7337 17.7542L85.3378 20.4535L88.2625 21.0846C88.2803 21.1428 88.3562 21.1831 88.3739 21.2412Z" stroke="black" stroke-width="0.8" mask="url(#path-1-inside-1_61_108)"/>
<path d="M82.5163 19.5366C82.476 19.6125 82.4357 19.6884 82.3776 19.7061L78.9641 20.1777C78.8882 20.1374 78.8124 20.097 78.7946 20.0389C78.7768 19.9808 78.8172 19.9049 78.9334 19.8694L82.3468 19.3978C82.4049 19.38 82.4985 19.4785 82.5163 19.5366Z" stroke="black" stroke-width="0.8" mask="url(#path-1-inside-1_61_108)"/>
<path d="M76.941 17.3008C76.941 17.3008 76.9588 17.3589 76.9007 17.3767C76.8603 17.4526 76.8022 17.4703 76.7264 17.43L74.5795 16.4339L71.4436 16.5665C71.3855 16.5842 71.3096 16.5439 71.2741 16.4276C71.2563 16.3695 71.3547 16.2759 71.4306 16.3162L74.6069 16.1078L74.6827 16.1481L76.0887 16.7987L74.287 15.0616C74.2111 15.0212 74.2337 14.8872 74.2918 14.8695C74.3321 14.7936 74.4661 14.8162 74.4839 14.8743L76.9055 17.1846C76.9232 17.2427 76.9232 17.2427 76.941 17.3008Z" stroke="black" stroke-width="0.8" mask="url(#path-1-inside-1_61_108)"/>
<path d="M69.8819 12.9129L69.8996 12.971C69.8593 13.0469 69.8012 13.0647 69.7431 13.0824L66.5313 13.1746C66.4151 13.2102 66.3392 13.1698 66.3796 13.0939C66.344 12.9777 66.4021 12.9599 66.5183 12.9244L69.212 12.7999L67.0522 11.5536C66.9941 11.5714 66.9763 11.5133 66.9763 11.5133L66.1378 8.14706C66.1022 8.03082 66.1425 7.95494 66.2006 7.93717C66.3168 7.90165 66.3927 7.94201 66.4282 8.05825L67.249 11.3663L69.7882 12.8144C69.8641 12.8548 69.8641 12.8548 69.8819 12.9129Z" stroke="black" stroke-width="0.8" mask="url(#path-1-inside-1_61_108)"/>
<path d="M65.1617 9.52591C65.1213 9.60179 65.081 9.67768 64.9648 9.7132L62.5486 9.49859C62.4905 9.51636 62.3969 9.41788 62.3791 9.35975C62.4194 9.28387 62.4598 9.20799 62.5937 9.23058L64.9922 9.38707C65.068 9.42743 65.1439 9.46779 65.1617 9.52591Z" stroke="black" stroke-width="0.8" mask="url(#path-1-inside-1_61_108)"/>
<path d="M2.95863 19.5788C7.08024 21.4745 11.5345 16.6715 16.0844 10.309C7.80384 13.4972 2.28802 16.5774 2.95863 19.5788Z" stroke="black" stroke-width="0.8" mask="url(#path-1-inside-1_61_108)"/>
<path d="M1.79743 22.338C1.40048 28 7.1796 30.0847 13.3381 31.9675C9.17396 26.0549 5.0953 20.4863 1.79743 22.338Z" stroke="black" stroke-width="0.8" mask="url(#path-1-inside-1_61_108)"/>
<path d="M10.7247 21.1905C15.3227 22.1514 19.3813 18.435 23.1773 12.6681C16.1222 14.1337 11.4587 16.7119 10.7247 21.1905Z" stroke="black" stroke-width="0.8" mask="url(#path-1-inside-1_61_108)"/>
<path d="M11.5019 23.8432C12.0236 28.5786 18.1533 29.3086 25.1128 29.4026C19.9508 25.0916 15.0048 21.7364 11.5019 23.8432Z" stroke="black" stroke-width="0.8" mask="url(#path-1-inside-1_61_108)"/>
<path d="M20.099 20.2433C24.0094 21.3752 27.9244 17.2972 31.8448 11.1235C25.18 13.5982 20.5035 16.4266 20.099 20.2433Z" stroke="black" stroke-width="0.8" mask="url(#path-1-inside-1_61_108)"/>
<path d="M19.2768 22.7247C22.2275 21.5931 25.8583 23.8471 29.8713 27.5526C24.1127 27.0632 19.702 25.9053 19.2768 22.7247Z" stroke="black" stroke-width="0.8" mask="url(#path-1-inside-1_61_108)"/>
<path d="M25.4571 21.6272C28.716 20.5262 32.2566 22.2442 35.9326 24.7663C30.3094 25.0808 25.8953 24.5575 25.4571 21.6272Z" stroke="black" stroke-width="0.8" mask="url(#path-1-inside-1_61_108)"/>
<path d="M28.245 19.3654C33.8135 18.3986 36.2146 14.4932 37.7523 9.87899C31.5038 12.8623 28.1813 16.0411 28.245 19.3654Z" stroke="black" stroke-width="0.8" mask="url(#path-1-inside-1_61_108)"/>
<path d="M32.0781 19.7111C34.0767 18.1612 38.2276 18.9219 43.2064 20.5076C38.9967 22.0169 35.1068 22.4801 32.0781 19.7111Z" stroke="black" stroke-width="0.8" mask="url(#path-1-inside-1_61_108)"/>
<path d="M37.244 15.6977C40.5624 15.4411 42.8357 12.5771 44.046 7.16371C39.5602 9.16063 36.9964 11.9358 37.244 15.6977Z" stroke="black" stroke-width="0.8" mask="url(#path-1-inside-1_61_108)"/>
<path d="M39.2419 16.4356C39.315 14.742 48.4904 15.0686 48.6531 16.1987C44.9629 18.5025 41.7477 19.0448 39.2419 16.4356Z" stroke="black" stroke-width="0.8" mask="url(#path-1-inside-1_61_108)"/>
<path d="M44.6319 12.9356C46.5805 10.9257 49.886 10.9194 53.9303 12.0287C50.0563 13.8949 46.7522 14.7278 44.6319 12.9356Z" stroke="black" stroke-width="0.8" mask="url(#path-1-inside-1_61_108)"/>
<path d="M48.847 9.33062C50.0274 7.33999 52.747 6.96395 56.3348 7.48884C53.4887 9.73287 50.8641 10.8371 48.847 9.33062Z" stroke="black" stroke-width="0.8" mask="url(#path-1-inside-1_61_108)"/>
<path d="M49.0151 8.36516C52.8407 6.86548 54.1133 3.94974 54.3531 0.464022C50.6581 2.57561 48.7239 5.16196 49.0151 8.36516Z" stroke="black" stroke-width="0.8" mask="url(#path-1-inside-1_61_108)"/>
<path d="M45.5559 9.9133C47.9851 9.44844 48.417 5.95789 48.0115 1.25804C45.7219 5.00681 44.2265 8.23576 45.5559 9.9133Z" stroke="black" stroke-width="0.8" mask="url(#path-1-inside-1_61_108)"/>
<path d="M0.351815 20.1174L0.499594 20.8776C1.75521 21.1344 5.11107 21.8893 6.38445 22.088C8.98931 22.503 11.5894 22.726 14.2024 22.6986C16.8558 22.7472 19.4641 22.5278 22.0272 22.0403C24.6307 21.6287 27.1713 21.0073 29.6667 20.1178L30.5819 19.8256C30.8676 19.7223 31.1711 19.5609 31.4568 19.4576L31.9523 19.2913C32.1041 19.2106 32.238 19.188 32.3898 19.1073L33.2647 18.7392L34.1573 18.313L35.0322 17.945L36.8175 17.0926C39.0935 15.8818 41.2889 14.5193 43.4037 13.005C44.461 12.2478 45.4603 11.4729 46.4773 10.6399C46.9858 10.2234 47.4363 9.78908 47.8867 9.3548C48.3952 8.93828 48.8456 8.50401 49.3138 8.0116C49.3138 8.0116 49.3316 7.95348 49.2912 7.8776C49.2912 7.8776 49.2331 7.85983 49.2154 7.91796C48.9119 8.07939 48.6665 8.25859 48.4034 8.49591C48.158 8.67511 47.953 8.93019 47.6495 9.09162C47.4041 9.27082 47.1587 9.45002 46.8956 9.68734C46.6502 9.86654 46.4049 10.0457 46.1595 10.2249C45.8963 10.4623 45.651 10.6415 45.4056 10.8207L45.0085 11.0806L44.5936 11.3986C44.3482 11.5778 44.1028 11.757 43.7994 11.9184L43.4604 12.1961L43.0455 12.5142C42.742 12.6756 42.4966 12.8548 42.2513 13.034L41.457 13.5538C41.1536 13.7153 40.9082 13.8945 40.6047 14.0559L39.8105 14.5757L39.5829 14.6968C39.507 14.7372 39.4893 14.7953 39.4134 14.8356L38.976 15.0197C38.7306 15.1989 38.4271 15.3603 38.1817 15.5395L37.2891 15.9657C37.1954 16.0642 37.0437 16.1449 36.892 16.2256L36.4545 16.4096L35.62 16.8536L34.7273 17.2798L34.2899 17.4638L33.8347 17.706L32.0849 18.4421C31.9332 18.5228 31.7992 18.5454 31.6475 18.6261L31.21 18.8101C30.9243 18.9135 30.5805 18.999 30.2948 19.1023L29.3619 19.4526C26.96 20.2436 24.4775 20.8828 21.9322 21.3122C16.8414 22.1708 11.6153 22.2255 6.53958 21.3727C5.52274 21.2141 1.66372 20.427 0.351815 20.1174Z" stroke="black" stroke-width="0.8" mask="url(#path-1-inside-1_61_108)"/>
<path d="M0.13234 20.3036L0.114571 20.3617L2.25882 23.1146C2.29914 23.1905 2.43311 23.1679 2.45088 23.1097C2.52675 23.0694 2.54452 23.0113 2.50419 22.9354L0.713327 20.4812C1.45903 20.3279 3.34276 19.5692 3.40085 19.5869C3.47672 19.5466 3.51226 19.4303 3.47193 19.3544C3.4897 19.2963 3.3735 19.2608 3.29764 19.3011C3.29764 19.3011 0.99424 20.1858 0.185649 20.1292C0.185649 20.1292 0.167879 20.1874 0.15011 20.2455C0.15011 20.2455 0.15011 20.2455 0.13234 20.3036Z" stroke="black" stroke-width="0.8" mask="url(#path-1-inside-1_61_108)"/>
<path d="M6.3571 21.7618C6.33933 21.8199 6.37966 21.8958 6.43776 21.9136L12.1506 24.4228C12.2087 24.4406 12.2846 24.4002 12.3604 24.3599C12.396 24.2436 12.3556 24.1677 12.2394 24.1322L7.08982 21.8587C8.31809 21.7894 11.0022 21.5296 12.3453 20.6691C12.4212 20.6287 12.4389 20.5706 12.3986 20.4947C12.3583 20.4188 12.3002 20.4011 12.2243 20.4414C10.5019 21.5037 6.52661 21.623 6.46851 21.6052C6.39264 21.6456 6.31677 21.6859 6.299 21.7441C6.299 21.7441 6.299 21.7441 6.3571 21.7618Z" stroke="black" stroke-width="0.8" mask="url(#path-1-inside-1_61_108)"/>
<path d="M17.3821 22.2726L17.3643 22.3307C17.4047 22.4066 17.4628 22.4243 17.4628 22.4243L20.5468 23.5579C20.663 23.5934 20.7389 23.553 20.7566 23.4949C20.7744 23.4368 20.7518 23.3028 20.6937 23.285L17.8243 22.2807L21.8569 19.0648C21.9328 19.0244 21.9683 18.9082 21.928 18.8323C21.8118 18.7967 21.7537 18.779 21.6779 18.8193L17.4757 22.1741C17.3999 22.2144 17.3821 22.2726 17.3821 22.2726Z" stroke="black" stroke-width="0.8" mask="url(#path-1-inside-1_61_108)"/>
<path d="M23.9868 21.2412C24.0271 21.3171 24.0094 21.3752 24.0675 21.393L26.4946 22.3893C26.5527 22.407 26.6867 22.3844 26.7222 22.2682C26.74 22.2101 26.6997 22.1342 26.6416 22.1164L24.6033 21.3026L27.1439 20.6811C27.1439 20.6811 27.202 20.6989 27.2198 20.6408L29.882 17.9592C29.8997 17.9011 29.9353 17.7849 29.8772 17.7671C29.8368 17.6912 29.7029 17.7138 29.627 17.7542L27.0229 20.4535L24.0982 21.0846C24.0804 21.1427 24.0046 21.1831 23.9868 21.2412Z" stroke="black" stroke-width="0.8" mask="url(#path-1-inside-1_61_108)"/>
<path d="M29.8444 19.5366C29.8847 19.6125 29.9251 19.6884 29.9832 19.7061L33.3966 20.1777C33.4725 20.1374 33.5484 20.097 33.5661 20.0389C33.5839 19.9808 33.5436 19.9049 33.4274 19.8694L30.0139 19.3978C29.9558 19.38 29.8622 19.4785 29.8444 19.5366Z" stroke="black" stroke-width="0.8" mask="url(#path-1-inside-1_61_108)"/>
<path d="M35.4197 17.3008C35.4197 17.3008 35.402 17.3589 35.4601 17.3767C35.5004 17.4526 35.5585 17.4703 35.6344 17.43L37.7812 16.4339L40.9172 16.5665C40.9753 16.5842 41.0511 16.5439 41.0867 16.4276C41.1044 16.3695 41.006 16.2759 40.9301 16.3162L37.7539 16.1078L37.678 16.1481L36.2721 16.7987L38.0737 15.0616C38.1496 15.0212 38.127 14.8872 38.0689 14.8695C38.0286 14.7936 37.8946 14.8162 37.8769 14.8743L35.4553 17.1845C35.4375 17.2427 35.4375 17.2427 35.4197 17.3008Z" stroke="black" stroke-width="0.8" mask="url(#path-1-inside-1_61_108)"/>
<path d="M42.4789 12.9129L42.4611 12.971C42.5014 13.0469 42.5595 13.0647 42.6176 13.0824L45.8294 13.1746C45.9456 13.2101 46.0215 13.1698 45.9812 13.0939C46.0167 12.9777 45.9586 12.9599 45.8424 12.9244L43.1487 12.7999L45.3085 11.5536C45.3666 11.5714 45.3844 11.5133 45.3844 11.5133L46.223 8.14706C46.2585 8.03081 46.2182 7.95493 46.1601 7.93717C46.0439 7.90164 45.968 7.942 45.9325 8.05824L45.1117 11.3663L42.5725 12.8144C42.4966 12.8548 42.4966 12.8548 42.4789 12.9129Z" stroke="black" stroke-width="0.8" mask="url(#path-1-inside-1_61_108)"/>
<path d="M47.1991 9.5259C47.2394 9.60178 47.2797 9.67767 47.3959 9.71319L49.8121 9.49859C49.8702 9.51635 49.9639 9.41787 49.9816 9.35975C49.9413 9.28386 49.901 9.20798 49.767 9.23057L47.3686 9.38706C47.2927 9.42742 47.2169 9.46778 47.1991 9.5259Z" stroke="black" stroke-width="0.8" mask="url(#path-1-inside-1_61_108)"/>
</g>
</svg>
