<svg width="102" height="28" viewBox="0 0 102 28" fill="none" xmlns="http://www.w3.org/2000/svg">
<g id="lunettes_manu">
<path id="path2" d="M16.4277 14.5504C16.749 14.5504 17.0676 14.3712 17.3105 14.0797C17.5527 13.7891 17.7059 13.4026 17.7061 13.0211V8.82092C17.7061 8.43928 17.5528 8.05204 17.3105 7.76135C17.0676 7.46987 16.749 7.29065 16.4277 7.29065C16.0272 7.29065 12.0479 7.2951 8.16895 7.40491C6.22846 7.45984 4.31528 7.54116 2.88867 7.66077C2.17489 7.72062 1.58758 7.7895 1.18066 7.86877C0.975915 7.90868 0.824311 7.95049 0.727539 7.99084C0.709253 7.99848 0.695902 8.00884 0.683594 8.01526L2.12891 10.4225L2.15039 10.4586V10.485C2.15145 10.4864 2.15275 10.488 2.1543 10.4899C2.16843 10.5068 2.19558 10.5315 2.24023 10.5631C2.32904 10.6259 2.46631 10.701 2.65039 10.7858C3.01711 10.9545 3.5462 11.1528 4.18945 11.3688C5.47544 11.8005 7.20146 12.2978 8.9541 12.7701C10.706 13.2423 12.4827 13.6884 13.8711 14.0162C14.5653 14.1801 15.1621 14.3147 15.6094 14.4078C15.8331 14.4544 16.0189 14.4909 16.1602 14.5153C16.3056 14.5404 16.3927 14.5503 16.4277 14.5504Z" fill="#233546" stroke="black" stroke-width="0.3"/>
<path id="path3" d="M86.7395 14.5504C86.7414 14.5501 86.7555 14.549 86.7893 14.5426C86.8252 14.5358 86.8744 14.5254 86.9358 14.5114C87.0584 14.4833 87.2271 14.4417 87.4358 14.3883C87.8532 14.2814 88.428 14.1275 89.1057 13.9401C90.4611 13.5653 92.229 13.0567 93.9837 12.5221C95.7391 11.9873 97.4796 11.4265 98.7796 10.9479C99.43 10.7084 99.9661 10.4907 100.338 10.3082C100.525 10.2166 100.665 10.1366 100.756 10.0699C100.802 10.0366 100.829 10.0101 100.844 9.99182C100.846 9.98897 100.849 9.9869 100.85 9.98499V9.97424L100.859 9.95081L101.831 7.1676C101.819 7.16122 101.803 7.15118 101.782 7.14319C101.688 7.10879 101.54 7.07578 101.34 7.04749C100.942 6.99131 100.368 6.9558 99.6702 6.93616C98.2768 6.89691 96.4121 6.92274 94.5315 6.97522C92.6516 7.02769 90.7578 7.10688 89.3079 7.17249C87.8634 7.23785 86.849 7.29065 86.7395 7.29065C86.3684 7.29079 85.9846 7.4773 85.6907 7.77112C85.3967 8.06508 85.2102 8.44968 85.2102 8.82092V13.0211C85.2104 13.3922 85.3968 13.7761 85.6907 14.0699C85.9846 14.3638 86.3684 14.5503 86.7395 14.5504Z" fill="#233546" stroke="black" stroke-width="0.3"/>
<path id="path4" d="M32.0949 1.26006C22.3084 1.26006 17.3101 4.62025 17.3101 11.7606C17.3101 18.439 19.2002 26.4614 28.1467 26.4614C36.5892 26.4614 46.9217 19.6571 46.9217 11.7606C46.9217 4.62025 41.9235 1.26006 32.0949 1.26006Z" fill="#182430"/>
<path id="path5" d="M70.7791 1.26006C61.1185 1.26006 56.0782 4.62025 56.0782 11.7606C56.0782 19.6571 66.5788 26.4614 74.9793 26.4614C83.7998 26.4614 85.4799 18.439 85.4799 11.7606C85.4799 4.62025 80.8596 1.26006 70.7791 1.26006Z" fill="#182430"/>
<path id="path6" d="M40.3694 2.52013C40.3694 3.36018 40.2434 4.62025 39.9494 5.88031C39.0253 9.2405 37.0932 12.6007 34.6571 15.1208C30.7089 19.6991 25.1226 21.8832 19.4522 21.7152C21.0063 24.4873 23.7365 26.4614 28.1467 26.4614C36.5892 26.4614 46.9217 19.6571 46.9217 11.7606C46.9217 7.14038 44.6956 3.7802 40.3694 2.52013Z" fill="#121B23"/>
<path id="path7" d="M82.1197 3.7802C81.6996 4.62024 81.6996 5.88031 81.2796 6.72036C80.4396 10.5006 78.7595 13.8607 76.2394 16.6749C73.7192 19.5311 70.359 21.6732 66.5788 22.2612C65.3188 22.4292 64.0587 22.5552 62.7986 22.5972C66.5788 24.9914 70.7791 26.4614 74.9793 26.4614C83.7998 26.4614 85.4799 18.439 85.4799 11.7606C85.4799 7.98043 84.2198 5.46029 82.1197 3.7802Z" fill="#121B23"/>
<path id="path8" d="M32.0949 1.26007C22.3084 1.26007 17.3101 4.62026 17.3101 11.7606C17.3101 18.439 19.2002 26.4615 28.1467 26.4615C36.5892 26.4615 46.9217 19.6571 46.9217 11.7606C46.9217 4.62026 41.9235 1.26007 32.0949 1.26007ZM28.1467 27.4275C20.4183 27.4275 16.3441 22.0092 16.3441 11.7606C16.3441 4.20023 21.8044 4.33158e-06 32.0949 4.33158e-06C42.4275 4.33158e-06 47.8878 4.20023 47.8878 11.7606C47.8878 20.1611 37.0092 27.4275 28.1467 27.4275Z" fill="#233546"/>
<path id="path9" d="M70.7791 1.26007C61.1185 1.26007 56.0783 4.62026 56.0783 11.7606C56.0783 19.6571 66.5788 26.4615 74.9793 26.4615C83.7998 26.4615 85.4799 18.439 85.4799 11.7606C85.4799 4.62026 80.8596 1.26007 70.7791 1.26007ZM74.9793 27.4275C66.1588 27.4275 55.2382 20.1611 55.2382 11.7606C55.2382 4.20023 60.6985 4.33158e-06 70.7791 4.33158e-06C81.2796 4.33158e-06 86.7399 4.20023 86.7399 11.7606C86.7399 22.0092 82.5397 27.4275 74.9793 27.4275Z" fill="#233546"/>
<path id="path10" d="M56.0782 9.2405C50.6179 5.04027 47.2578 8.82048 47.1318 9.2405L46.3757 8.40046C46.4177 8.40046 50.6179 3.7802 56.4983 8.40046L56.0782 9.2405Z" fill="#233546"/>
<path id="path11" d="M68.2589 1.26007H34.6151V0.420021H68.2589V1.26007Z" fill="#233546"/>
<path id="path12" d="M47.8878 19.2791C47.7198 19.6571 47.2998 19.8251 46.9217 19.6991C46.5437 19.5311 46.3757 19.111 46.5017 18.733L47.8878 15.1208C48.0138 15.1208 48.4758 14.7008 48.8119 14.7008C49.3579 15.1208 49.3579 15.5409 49.3579 15.9609L47.8878 19.2791Z" fill="#233546"/>
<path id="path13" d="M48.0558 17.2629C47.9298 17.557 47.6358 17.683 47.3418 17.599L46.2077 17.1369C45.9137 17.0109 45.7877 16.7169 45.9137 16.4229C45.9977 15.9609 46.3337 15.9609 46.5857 15.9609L47.7618 16.5909C48.0138 16.6749 48.1398 17.0109 48.0558 17.2629Z" fill="#233546"/>
<path id="path14" d="M55.2382 19.2791C55.2382 19.6571 55.6582 19.8251 56.0783 19.6991C56.4983 19.5311 56.4983 19.111 56.4983 18.733L55.2382 15.1208C54.8182 15.1208 54.3982 14.7008 53.9781 14.7008C53.9781 15.1208 53.5581 15.5409 53.5581 15.9609L55.2382 19.2791Z" fill="#233546"/>
<path id="path15" d="M54.8182 17.2629C55.2382 17.557 55.2382 17.683 55.6582 17.599L56.9183 17.1369C56.9183 17.0109 57.3383 16.7169 56.9183 16.4229C56.9183 15.9609 56.4983 15.9609 56.4983 15.9609L55.2382 16.5909C54.8182 16.6749 54.8182 17.0109 54.8182 17.2629Z" fill="#233546"/>
<path id="path16" d="M26.9707 3.36018C23.7365 3.36018 20.7963 5.88032 20.1243 8.82048C20.0403 9.2405 19.7463 10.5006 20.4183 10.5006C20.6283 10.5006 20.7543 10.0805 20.8803 10.0805C21.0903 9.66053 21.3424 9.2405 21.5944 8.82048C22.6024 7.56041 23.7365 5.88032 25.1646 5.04027C25.6686 4.62025 26.1726 4.20023 26.6766 4.20023C26.8447 3.7802 27.0127 3.7802 27.1387 3.7802C27.3907 3.7802 27.3067 3.36018 26.9707 3.36018Z" fill="#626879"/>
<path id="path17" d="M19.8723 11.3406C19.8303 10.9206 19.4102 11.3406 19.2422 11.3406C18.9482 11.7606 18.7802 12.1807 18.6122 12.6007C18.3182 13.0207 18.2342 14.2808 18.5702 15.1208C18.7382 15.1208 19.0742 15.1208 19.2002 14.7008C19.4102 14.7008 19.4942 14.2808 19.5783 13.8607C19.7043 13.4407 19.7883 13.0207 19.8303 12.6007C19.8303 12.1807 19.9143 11.7606 19.8723 11.3406Z" fill="#626879"/>
<path id="path18" d="M66.1588 2.52013C63.2186 2.52013 60.2785 5.04027 59.4384 7.98043C59.4384 8.40045 59.0184 9.66052 59.8585 9.66052L60.2785 9.2405C60.2785 8.82048 60.6985 8.40045 61.1185 7.98043C61.9586 6.72036 63.2186 5.04027 64.4787 4.20022C64.8987 3.7802 65.3188 3.36018 66.1588 3.36018C66.1588 2.94015 66.1588 2.94015 66.5788 2.94015C66.5788 2.94015 66.5788 2.52013 66.1588 2.52013Z" fill="#626879"/>
<path id="path19" d="M59.0184 10.5006C59.0184 10.0806 58.5984 10.5006 58.5984 10.5006C58.1784 10.9206 58.1784 11.3406 58.1784 11.3406C57.7583 12.1807 57.7583 13.4407 57.7583 14.2808C58.1784 14.2808 58.5984 14.2808 58.5984 13.8608C58.5984 13.8608 59.0184 13.4407 59.0184 13.0207C59.0184 12.6007 59.0184 12.1807 59.0184 11.7606C59.0184 11.3406 59.4384 10.9206 59.0184 10.5006Z" fill="#626879"/>
</g>
</svg>
