<svg width="56" height="143" viewBox="0 0 56 143" fill="none" xmlns="http://www.w3.org/2000/svg">
<g id="marteau">
<path id="path1" d="M40.5075 1L40.8369 132.966C40.9467 133.305 40.9467 133.532 40.9467 133.86C40.9467 138.241 37.8666 141.716 34.0155 141.716C30.2754 141.716 27.1942 138.241 27.1942 133.973V133.192L26.8648 1.11212L40.5075 1Z" fill="#A05A2C" stroke="black" stroke-width="1.96224"/>
<path id="path2" d="M18.1733 2.45753H54.1492L54.259 24.6578L17.9526 24.7699C17.8065 24.6669 17.5235 24.4631 17.2926 24.3216C14.8928 21.1883 11.6965 18.7839 8.05115 17.3701C3.52612 15.3415 6.3767 16.5211 2 14.6793V11.6515C7.09201 10.3776 3.88949 11.1772 7.72321 10.2031C11.0832 8.8173 15.383 5.71858 17.733 2.90603L18.1733 2.45753Z" fill="black" stroke="black" stroke-width="2.25658"/>
</g>
</svg>
