<?xml version="1.0" encoding="UTF-8" standalone="no"?>
<!-- Created with Inkscape (http://www.inkscape.org/) -->

<svg
   width="203.95976mm"
   height="157.4024mm"
   viewBox="0 0 203.95976 157.4024"
   version="1.1"
   id="svg1"
   xmlns="http://www.w3.org/2000/svg"
   xmlns:svg="http://www.w3.org/2000/svg">
  <defs
     id="defs1" />
  <g
     id="layer1"
     transform="translate(67.515143,-22.117814)">
    <g
       id="g1"
       transform="translate(-73.071429,-47.732143)">
      <path
         id="path1406"
         d="M 96.061778,222.18999 C 94.700056,212.1958 90.5655,204.85096 83.77735,200.35658 c -5.60317,-3.7077 -13.099346,-5.58801 -22.281093,-5.58801 -17.989199,0 -36.214406,7.26017 -36.396439,7.33426 l -7.714545,2.60702 4.929364,-6.40644 C 32.144085,186.36188 35.874358,175.49985 33.401385,166.01366 29.668291,151.69088 12.931806,145.01279 12.763178,144.94577 l -7.2068972,-3.27025 8.0906062,-1.42523 c 9.878131,0 17.309748,-2.98802 22.087771,-8.88294 9.9949,-12.32606 5.669844,-33.471559 5.625042,-33.683226 L 40.267147,92.519457 44.903,95.048874 c 9.616017,5.249336 18.23332,7.912806 25.611315,7.912806 h 0.0035 c 17.51824,0 24.467963,-14.922501 28.200352,-22.94114 0.522111,-1.125361 0.973667,-2.0955 1.393473,-2.882195 0.55386,-1.040694 0.81844,-1.654528 0.82197,-1.658055 l 3.75356,-5.630334 0.91016,6.589889 c 0,8.36789 3.74297,14.27339 11.44059,18.062224 6.32883,3.1115 15.1765,4.688417 26.29958,4.688417 16.61584,0 32.49084,-3.60539 32.64959,-3.640667 l 7.12964,-1.640417 -4.73075,5.580945 c -4.84364,5.711473 -6.79098,12.657663 -5.78203,20.641033 0.83255,6.61458 3.6583,13.97352 8.39964,21.86869 8.21266,13.68778 19.41336,24.26406 19.52625,24.36636 l 4.48028,4.20512 h -6.14187 c -11.92389,0 -19.68852,2.83986 -23.08225,8.43844 -5.2458,8.64306 1.30881,21.43478 1.37584,21.56531 l 3.38314,6.48758 -6.59342,-3.175 c -6.90034,-3.32669 -14.19578,-5.00944 -21.6782,-5.00944 -28.59969,0 -51.79836,24.39811 -52.03119,24.64505 l -3.492503,3.72886 -0.687917,-5.06236"
         style="fill:#000000;fill-opacity:1;fill-rule:nonzero;stroke:none;stroke-width:0.0352778" />
      <path
         id="path1407"
         d="m 103.16672,76.439845 c 0,0 -0.28927,0.673806 -0.91016,1.8415 -4.303893,8.092723 -14.996235,42.664945 -58.518432,18.901835 0,0 9.620603,45.49775 -30.091241,45.49775 0,0 43.600866,17.01448 10.544175,57.16765 0,0 67.570355,-27.23445 74.276661,22.01333 0,0 36.826477,-39.29592 76.538667,-20.16478 0,0 -17.49072,-33.55622 23.86189,-33.55622 0,0 -45.62475,-42.75315 -22.33789,-70.223952 0,0 -73.36367,16.894532 -73.36367,-21.477113"
         style="fill:#ff270b;fill-opacity:1;fill-rule:nonzero;stroke:none;stroke-width:0.0352778" />
    </g>
    <g
       id="g2">
      <path
         id="path8773"
         d="m -43.210979,114.45872 c -1.715558,0 -3.270603,-1.0795 -3.867855,-2.68817 l -14.14639,-38.318722 c -0.437797,-1.195917 -0.310092,-2.497667 0.348544,-3.577167 0.658989,-1.083028 1.762478,-1.795639 3.026128,-1.947333 l 9.539465,-1.157112 c 0.16898,-0.02117 0.333375,-0.02822 0.496358,-0.02822 1.816453,0 3.400073,1.164167 3.939823,2.896306 l 2.573514,8.262056 0.729191,-8.752417 c 0.159103,-1.940278 1.680634,-3.520723 3.617031,-3.753556 l 9.479845,-1.150056 c 0.168628,-0.01764 0.333022,-0.02822 0.496006,-0.02822 1.801283,0 3.380317,1.153584 3.930297,2.868084 l 2.269067,7.122583 0.571853,-7.496528 c 0.144992,-1.954389 1.665464,-3.545417 3.614561,-3.781778 l 9.0745036,-1.100667 c 0.1640417,-0.02117 0.3298473,-0.02822 0.4963584,-0.02822 1.0925528,0 2.1604112,0.4445 2.9294668,1.220611 0.893939,0.899584 1.3282084,2.187223 1.160639,3.446639 l -5.4034976,40.678817 c -0.2451805,1.86619 -1.7240252,3.33022 -3.5955112,3.556 l -9.654823,1.16769 c -0.167922,0.0212 -0.332669,0.0317 -0.496711,0.0317 -1.795639,0 -3.372909,-1.14653 -3.925006,-2.8575 l -2.522008,-7.747 -0.799748,8.25147 c -0.183091,1.90853 -1.699683,3.46428 -3.605742,3.69711 l -9.778647,1.18534 c -0.167923,0.0212 -0.33267,0.0282 -0.496712,0.0282"
         style="fill:#000000;fill-opacity:1;fill-rule:nonzero;stroke:none;stroke-width:0.0352778" />
      <path
         id="path8774"
         d="m 17.357795,80.179301 c -5.658909,0 -7.6669202,6.731 -7.6669202,12.498917 0,8.999362 3.9980312,12.206112 7.7410032,12.206112 5.605639,0 7.591778,-6.731001 7.591778,-12.498918 0,-4.22275 -1.601611,-12.206111 -7.665861,-12.206111 z m -0.511528,42.104029 c -8.0426284,0 -14.935201,-2.84339 -19.9326513,-8.23031 -4.9403003,-5.32341 -7.5515617,-12.64002 -7.5515617,-21.15608 0,-17.73414 11.63249525,-30.120168 28.288546,-30.120168 8.438445,0 15.568085,3.058583 20.616335,8.840611 4.568472,5.235223 7.087306,12.481279 7.087306,20.401141 0,8.904116 -2.681111,16.474726 -7.754056,21.896916 -5.122334,5.47511 -12.301362,8.36789 -20.753918,8.36789"
         style="fill:#000000;fill-opacity:1;fill-rule:nonzero;stroke:none;stroke-width:0.0352778" />
      <path
         id="path8775"
         d="m 95.857911,156.39694 c -0.469195,0 -0.927806,-0.0705 -1.372306,-0.21166 l -15.374056,-4.85775 c -2.049639,-0.64911 -3.365501,-2.667 -3.129139,-4.80484 l 2.758722,-24.54275 -12.449529,21.58295 c -0.807861,1.397 -2.303639,2.2613 -3.908778,2.2613 -0.458611,0 -0.913694,-0.0705 -1.351139,-0.20814 l -15.582195,-4.92477 c -2.003778,-0.63148 -3.298472,-2.54 -3.139722,-4.6355 l 4.931833,-67.556952 c 0.09878,-1.382889 0.818445,-2.628195 1.972028,-3.407834 0.747889,-0.508 1.622778,-0.776111 2.532945,-0.776111 0.455083,0 0.910166,0.06703 1.347611,0.204611 l 15.208251,4.804834 c 2.081389,0.659694 3.393722,2.705805 3.122083,4.868333 L 68.157798,100.28764 81.09416,77.141884 c 0.79375,-1.425223 2.303639,-2.310695 3.940528,-2.310695 0.465667,0 0.924278,0.07056 1.36525,0.211667 l 15.098892,4.769556 c 2.06375,0.652639 3.37608,2.684639 3.12561,4.833056 l -2.87161,24.186442 11.77219,-21.410081 c 0.79375,-1.442861 2.30717,-2.338917 3.95817,-2.338917 0.45508,0 0.91017,0.06703 1.35114,0.204611 l 14.46036,4.568473 c 1.32292,0.419805 2.39536,1.446389 2.87514,2.744611 0.47978,1.312333 0.32456,2.790472 -0.41275,3.961695 L 99.68555,154.27675 c -0.829028,1.32644 -2.261306,2.12019 -3.827639,2.12019"
         style="fill:#000000;fill-opacity:1;fill-rule:nonzero;stroke:none;stroke-width:0.0352778" />
      <path
         id="path8776"
         d="m -48.668804,112.19389 c -1.715558,0 -3.270603,-1.08303 -3.868208,-2.68817 L -66.683049,71.186994 c -0.43815,-1.199444 -0.310445,-2.501194 0.348191,-3.580694 0.659342,-1.083028 1.762831,-1.792111 3.026481,-1.947334 l 9.539464,-1.157111 c 0.168628,-0.01764 0.333375,-0.02822 0.496359,-0.02822 1.8161,0 3.399719,1.164167 3.939822,2.899833 l 2.573162,8.258529 0.729544,-8.74889 c 0.15875,-1.940278 1.680281,-3.520722 3.617031,-3.757083 l 9.479492,-1.146528 c 0.168628,-0.02117 0.333375,-0.03175 0.496358,-0.03175 1.801284,0 3.380317,1.153583 3.929945,2.868083 l 2.26942,7.122584 0.571853,-7.496528 c 0.144991,-1.950861 1.665111,-3.545417 3.614561,-3.781778 l 9.074503,-1.100667 c 0.164042,-0.01764 0.329848,-0.02822 0.496006,-0.02822 1.092553,0 2.160764,0.4445 2.9298195,1.220611 0.8939389,0.899584 1.3278556,2.19075 1.1602862,3.450167 L -13.793896,104.8808 c -0.245181,1.8662 -1.724025,3.3267 -3.595511,3.55247 l -9.654823,1.17123 c -0.167923,0.0176 -0.33267,0.0282 -0.496711,0.0282 -1.795639,0 -3.372909,-1.14653 -3.925006,-2.85397 l -2.522009,-7.747004 -0.799747,8.247944 c -0.183092,1.90853 -1.700036,3.46428 -3.606095,3.70064 l -9.778295,1.18181 c -0.168275,0.0212 -0.332669,0.0318 -0.496711,0.0318"
         style="fill:#000000;fill-opacity:1;fill-rule:nonzero;stroke:none;stroke-width:0.0352778" />
      <path
         id="path8777"
         d="m -48.668804,109.24466 c -0.490008,0 -0.934508,-0.30691 -1.105605,-0.76905 L -63.917977,70.163939 c -0.124883,-0.342195 -0.08855,-0.712611 0.100189,-1.023056 0.187678,-0.306916 0.503061,-0.511528 0.863953,-0.553861 l 9.539464,-1.157111 c 0.04798,-0.0071 0.09525,-0.01058 0.141817,-0.01058 0.519289,0 0.97155,0.335138 1.126067,0.829027 l 4.955822,15.910279 c 0.74542,2.360084 1.488017,4.829528 2.151945,7.080251 0.169686,-2.599973 0.375355,-5.214056 0.566561,-7.552973 l 1.379361,-16.55939 c 0.04516,-0.553861 0.479778,-1.005417 1.033286,-1.072445 l 9.480551,-1.150055 c 0.04798,-0.0035 0.09525,-0.0071 0.141816,-0.0071 0.514703,0 0.965906,0.328084 1.123245,0.818445 l 5.174545,16.24189 c 0.625122,1.961444 1.210028,3.891139 1.786819,5.898445 0.05997,-1.157112 0.125589,-2.33539 0.193675,-3.545417 0.0568,-1.019528 0.113242,-2.046112 0.167923,-3.072695 l 1.26365,-16.569973 c 0.04163,-0.557389 0.475544,-1.012473 1.032933,-1.083028 l 9.072034,-1.097139 c 0.04727,-0.0071 0.09419,-0.0071 0.141464,-0.0071 0.312561,0 0.617714,0.127 0.837847,0.345723 0.255411,0.257527 0.378531,0.627944 0.330906,0.987777 l -5.403498,40.678817 c -0.0702,0.53269 -0.492478,0.94897 -1.026936,1.016 l -9.656234,1.16769 c -0.04798,0.007 -0.09525,0.0106 -0.142169,0.0106 -0.512587,0 -0.963084,-0.32808 -1.121128,-0.81491 l -5.392209,-16.569981 c -0.496711,-1.552222 -1.012119,-3.192639 -1.520472,-4.928305 -0.124178,1.855611 -0.273403,3.538361 -0.458611,5.214056 l -1.688042,17.40959 c -0.05221,0.54328 -0.485775,0.98778 -1.030817,1.0548 l -9.774414,1.18534 c -0.04798,0.007 -0.09525,0.007 -0.14217,0.007"
         style="fill:#ffffff;fill-opacity:1;fill-rule:nonzero;stroke:none;stroke-width:0.0352778" />
      <path
         id="path8778"
         d="m -12.551413,63.073105 -9.071328,1.097139 c -0.2794,0.03528 -0.495653,0.261056 -0.51682,0.53975 l -1.262591,16.55939 c -0.05433,1.026583 -0.111478,2.053167 -0.168628,3.072695 -0.138289,2.483555 -0.271992,4.878917 -0.359833,7.214306 -0.911578,-3.354917 -1.796698,-6.360584 -2.770717,-9.422695 l -5.174192,-16.238363 c -0.08608,-0.268111 -0.351367,-0.437444 -0.632531,-0.405694 l -9.481256,1.150056 c -0.277636,0.03175 -0.493183,0.257527 -0.516819,0.536222 l -1.378303,16.555862 c -0.296334,3.630084 -0.585964,7.404806 -0.764117,10.946695 -0.947208,-3.266722 -2.022122,-6.917973 -3.104797,-10.346973 l -4.956176,-15.906751 c -0.08467,-0.271639 -0.351014,-0.4445 -0.633589,-0.409222 l -9.539464,1.153583 c -0.178859,0.02469 -0.338314,0.127 -0.432506,0.278695 -0.09384,0.155222 -0.112183,0.342194 -0.04974,0.511528 L -49.221607,108.271 c 0.0949,0.25752 0.352778,0.41275 0.624064,0.381 l 9.773709,-1.18534 c 0.274814,-0.0318 0.489303,-0.25047 0.516114,-0.52564 l 1.688395,-17.420163 c 0.320675,-2.892778 0.51188,-5.651501 0.657577,-8.741834 0.727781,2.776361 1.52012,5.376334 2.468034,8.343195 l 5.392209,16.566442 c 0.08749,0.26811 0.352072,0.43745 0.631825,0.40217 l 9.656586,-1.16769 c 0.2667,-0.0318 0.478014,-0.24342 0.513292,-0.508 l 5.403498,-40.678813 c 0.02399,-0.183444 -0.03704,-0.363361 -0.1651,-0.493889 -0.128059,-0.130527 -0.309386,-0.1905 -0.490009,-0.169333"
         style="fill:#0fbbff;fill-opacity:1;fill-rule:nonzero;stroke:none;stroke-width:0.0352778" />
      <path
         id="path8779"
         d="m 11.900322,77.910939 c -5.6596141,0 -7.6676253,6.734529 -7.6676253,12.502446 0,8.999361 3.9983836,12.206115 7.7402973,12.206115 5.603523,0 7.59319,-6.734532 7.59319,-12.502449 0,-4.219222 -1.601611,-12.206112 -7.665862,-12.206112 z M 11.387383,120.0185 c -8.0415697,0 -14.9341424,-2.84692 -19.9315927,-8.23031 -4.9406533,-5.32694 -7.5519143,-12.640027 -7.5519143,-21.156083 0,-17.73414 11.6328479,-30.120169 28.288899,-30.120169 8.438798,0 15.568437,3.055056 20.616687,8.840612 4.568473,5.231695 7.087306,12.477751 7.087306,20.40114 0,8.904112 -2.681111,16.47472 -7.754056,21.89339 -5.122333,5.47864 -12.301362,8.37142 -20.755329,8.37142"
         style="fill:#000000;fill-opacity:1;fill-rule:nonzero;stroke:none;stroke-width:0.0352778" />
      <path
         id="path8780"
         d="m 11.900322,74.965245 c -6.4480725,0 -10.6150838,6.06425 -10.6150838,15.44814 0,9.203972 4.1952336,15.151805 10.6877558,15.151805 6.404329,0 10.542412,-6.060722 10.542412,-15.448139 0,-7.298972 -3.323167,-15.151806 -10.615084,-15.151806 z m -0.512939,42.104035 c -14.675909,0 -24.536049,-10.62214 -24.536049,-26.437173 0,-15.998473 10.4210567,-27.174474 25.341441,-27.174474 7.563909,0 13.924493,2.709333 18.397715,7.831667 4.099278,4.699 6.357056,11.253612 6.357056,18.46439 0,16.59467 -10.033001,27.31559 -25.560163,27.31559"
         style="fill:#ffffff;fill-opacity:1;fill-rule:nonzero;stroke:none;stroke-width:0.0352778" />
      <path
         id="path8781"
         d="m 11.899969,74.376106 c 7.697965,0 11.204576,8.15975 11.204576,15.740945 0,9.743723 -4.370917,16.040809 -11.131551,16.040809 -6.8505917,0 -11.27689476,-6.180669 -11.27689476,-15.744475 0,-9.743723 4.39772806,-16.037279 11.20386976,-16.037279 z m -0.512586,42.104034 c 15.170857,0 24.971024,-10.49162 24.971024,-26.72645 0,-7.066139 -2.204861,-13.486695 -6.212417,-18.076334 C 25.789184,66.68555 19.580295,64.0503 12.192422,64.0503 c -14.5732507,0 -24.751243,10.929056 -24.751243,26.581807 0,15.462253 9.6230728,25.848033 23.946204,25.848033"
         style="fill:#0fbbff;fill-opacity:1;fill-rule:nonzero;stroke:none;stroke-width:0.0352778" />
      <path
         id="path8782"
         d="m 90.400438,154.13211 c -0.469194,0 -0.927805,-0.0741 -1.372305,-0.21519 l -15.374057,-4.85775 c -2.049639,-0.64559 -3.3655,-2.667 -3.129139,-4.80484 l 2.758722,-24.53922 -12.449528,21.58294 c -0.807861,1.39348 -2.303639,2.25778 -3.908778,2.25778 -0.458611,0 -0.913695,-0.0705 -1.351139,-0.20461 l -15.582196,-4.92478 c -2.003778,-0.635 -3.298472,-2.54 -3.14325,-4.63902 L 41.78413,66.233994 c 0.09878,-1.382889 0.818444,-2.628194 1.972028,-3.411361 0.747888,-0.504472 1.622777,-0.776111 2.529416,-0.776111 0.458611,0 0.913695,0.07055 1.351139,0.208139 l 15.208251,4.804833 c 2.081389,0.656167 3.393723,2.702278 3.118556,4.864806 L 62.700325,98.019274 75.63316,74.87705 c 0.797277,-1.425222 2.307166,-2.314222 3.940528,-2.314222 0.465666,0 0.927805,0.07408 1.368777,0.211667 l 15.09889,4.773083 c 2.060223,0.649111 3.376084,2.681111 3.125612,4.829528 L 96.295355,106.56708 108.06755,85.153468 c 0.79022,-1.442862 2.30717,-2.338917 3.95817,-2.338917 0.45508,0 0.91016,0.07055 1.35114,0.208139 l 14.46036,4.568472 c 1.32292,0.419806 2.39536,1.442861 2.87514,2.741084 0.47978,1.312333 0.32455,2.790472 -0.41275,3.965222 L 94.228077,152.00839 c -0.829027,1.32997 -2.261305,2.12372 -3.827639,2.12372"
         style="fill:#000000;fill-opacity:1;fill-rule:nonzero;stroke:none;stroke-width:0.0352778" />
      <path
         id="path8783"
         d="m 90.400438,151.18289 c -0.162278,0 -0.321028,-0.0247 -0.47625,-0.0706 l -15.38464,-4.86128 c -0.712611,-0.22577 -1.167694,-0.9278 -1.086555,-1.66863 l 3.231444,-28.72317 c 0.500945,-4.2792 0.941917,-7.61648 1.414639,-10.6927 -1.869722,3.54542 -3.563055,6.57225 -5.316361,9.52147 L 58.28002,139.82344 c -0.278695,0.48331 -0.797278,0.7867 -1.354667,0.7867 h -0.0035 c -0.15875,0 -0.3175,-0.0247 -0.469194,-0.0741 L 40.881018,135.6148 c -0.6985,-0.21872 -1.146527,-0.88194 -1.090083,-1.60866 l 4.931834,-67.556951 c 0.03528,-0.483306 0.28575,-0.913695 0.684389,-1.185334 0.261055,-0.176389 0.564444,-0.268111 0.878416,-0.268111 0.162278,0 0.321028,0.02469 0.472723,0.07056 l 15.197667,4.801305 c 0.723195,0.229306 1.178278,0.938389 1.083028,1.689806 l -3.432528,27.424946 c -0.589139,4.871859 -1.291167,9.958909 -1.919111,14.343939 2.328333,-4.39914 4.843639,-8.94644 7.073195,-12.954 L 78.208437,76.312856 c 0.275167,-0.493889 0.800806,-0.800806 1.365251,-0.800806 0.162277,0 0.321027,0.02469 0.47625,0.07408 l 15.102417,4.769555 c 0.716139,0.225778 1.17475,0.931334 1.086556,1.679223 l -3.330223,28.074062 c -0.497416,4.16278 -1.04775,8.19503 -1.700389,12.44953 1.185334,-2.30717 2.409473,-4.65314 3.683001,-7.08731 l 0.119944,-0.22225 c 0.786695,-1.50283 1.576917,-3.01272 2.363611,-4.52614 L 110.64988,86.575162 c 0.27517,-0.500944 0.80081,-0.811389 1.37584,-0.811389 0.15875,0 0.3175,0.02469 0.46919,0.07056 l 14.45331,4.568472 c 0.45861,0.144639 0.83255,0.500945 0.99836,0.9525 0.16581,0.451556 0.11289,0.966611 -0.14111,1.372306 L 91.726883,150.44911 c -0.289278,0.45861 -0.783167,0.73378 -1.326445,0.73378"
         style="fill:#ffffff;fill-opacity:1;fill-rule:nonzero;stroke:none;stroke-width:0.0352778" />
      <path
         id="path8784"
         d="m 40.376546,134.052 c -0.03175,0.45155 0.250472,0.8643 0.680861,1.00189 l 15.571612,4.92125 c 0.437445,0.13758 0.913695,-0.0494 1.143,-0.4445 l 14.502696,-25.146 c 2.465917,-4.14162 4.646083,-8.17387 6.995584,-12.75292 -0.807862,4.699 -1.397,9.16517 -2.00025,14.29456 l -3.227917,28.71964 c -0.05292,0.46566 0.229305,0.90311 0.677333,1.04069 l 15.38464,4.86128 c 0.423333,0.13405 0.889,-0.0353 1.121833,-0.41275 L 127.30452,92.413635 c 0.16228,-0.257528 0.19403,-0.5715 0.0917,-0.85725 -0.10584,-0.282223 -0.33514,-0.500945 -0.62442,-0.592667 l -14.45331,-4.564945 c -0.4445,-0.141111 -0.9278,0.05292 -1.15358,0.458611 L 97.896966,110.99444 c -0.786694,1.51342 -1.576916,3.02683 -2.363611,4.52967 -1.915583,3.65125 -3.757083,7.17197 -5.496278,10.6433 0.927806,-5.6903 1.654528,-10.83733 2.286,-16.129 L 95.6533,81.967884 c 0.05292,-0.469194 -0.229306,-0.906639 -0.677334,-1.04775 L 79.870021,76.14705 c -0.440972,-0.141111 -0.92075,0.04939 -1.146528,0.455084 l -13.44789,24.055916 c -3.326694,5.97606 -6.173611,11.17247 -8.664222,15.99848 0.811388,-5.58095 1.693333,-11.82864 2.413,-17.748256 l 3.432528,-27.424946 c 0.05644,-0.465667 -0.225778,-0.910167 -0.677334,-1.051278 L 46.581908,65.630744 c -0.28575,-0.09172 -0.596195,-0.04586 -0.843139,0.123472 -0.246945,0.165806 -0.405695,0.437445 -0.426861,0.737306 L 40.376546,134.052"
         style="fill:#0fbbff;fill-opacity:1;fill-rule:nonzero;stroke:none;stroke-width:0.0352778" />
    </g>
  </g>
</svg>
